<?xml version="1.0" standalone="no"?>
<!DOCTYPE svg PUBLIC "-//W3C//DTD SVG 1.1//EN" "http://www.w3.org/Graphics/SVG/1.1/DTD/svg11.dtd" >
<svg xmlns="http://www.w3.org/2000/svg" xmlns:xlink="http://www.w3.org/1999/xlink" version="1.1">
<metadata>
Created by FontForge 20161003 at Thu Dec 29 21:54:57 2016
 By www-data
Michael Muranaka
</metadata>
<defs>
<font id="DolceVitaLight" horiz-adv-x="1014" >
  <font-face 
    font-family="DolceVitaLight"
    font-weight="400"
    font-stretch="normal"
    units-per-em="2048"
    panose-1="2 0 5 0 0 0 0 0 0 0"
    ascent="1638"
    descent="-410"
    x-height="1429"
    cap-height="1436"
    bbox="-70 -404 2302 1720"
    underline-thickness="150"
    underline-position="-442"
    unicode-range="U+0020-F002"
  />
<missing-glyph horiz-adv-x="2348" 
d="M831 1393q101 36 207 41h114v-697h-172v516q-78 -13 -149 -49v-467h-172v329q-116 -144 -116 -329h-174q0 143 55 272q54 126 151 223q-156 -54 -254 -188q-99 -137 -99 -307h-174q0 138 52 265q51 123 143 218q92 96 213 151q124 57 261 63h114v-41zM1371 737h-172v697
h114q106 -5 207 -41v41h113q137 -6 262 -63q120 -55 212 -151q92 -95 143 -218q52 -127 52 -265h-174q0 170 -99 307q-97 134 -253 188q97 -97 150 -223q56 -129 56 -272h-174q0 186 -117 329v-329h-171v467q-71 36 -149 49v-516zM1776 202q156 54 253 188q99 137 99 307
h174q0 -138 -52 -265q-51 -123 -143 -218q-92 -96 -212 -151q-125 -57 -262 -63h-113v41q-101 -36 -207 -41h-114v697h172v-516q78 13 149 49v467h171v-329q117 143 117 329h174q0 -143 -56 -272q-53 -126 -150 -223zM980 697h172v-697h-114q-107 5 -207 41v-41h-114
q-137 6 -261 63q-121 55 -213 151q-92 95 -143 218q-52 127 -52 265h174q0 -170 99 -307q98 -134 254 -188q-98 97 -151 223q-55 129 -55 272h174q0 -185 116 -329v329h172v-467q71 -36 149 -49v516z" />
    <glyph glyph-name=".notdef" horiz-adv-x="2348" 
d="M831 1393q101 36 207 41h114v-697h-172v516q-78 -13 -149 -49v-467h-172v329q-116 -144 -116 -329h-174q0 143 55 272q54 126 151 223q-156 -54 -254 -188q-99 -137 -99 -307h-174q0 138 52 265q51 123 143 218q92 96 213 151q124 57 261 63h114v-41zM1371 737h-172v697
h114q106 -5 207 -41v41h113q137 -6 262 -63q120 -55 212 -151q92 -95 143 -218q52 -127 52 -265h-174q0 170 -99 307q-97 134 -253 188q97 -97 150 -223q56 -129 56 -272h-174q0 186 -117 329v-329h-171v467q-71 36 -149 49v-516zM1776 202q156 54 253 188q99 137 99 307
h174q0 -138 -52 -265q-51 -123 -143 -218q-92 -96 -212 -151q-125 -57 -262 -63h-113v41q-101 -36 -207 -41h-114v697h172v-516q78 13 149 49v467h171v-329q117 143 117 329h174q0 -143 -56 -272q-53 -126 -150 -223zM980 697h172v-697h-114q-107 5 -207 41v-41h-114
q-137 6 -261 63q-121 55 -213 151q-92 95 -143 218q-52 127 -52 265h174q0 -170 99 -307q98 -134 254 -188q-98 97 -151 223q-55 129 -55 272h174q0 -185 116 -329v329h172v-467q71 -36 149 -49v516z" />
    <glyph glyph-name=".null" horiz-adv-x="0" 
 />
    <glyph glyph-name="nonmarkingreturn" horiz-adv-x="508" 
 />
    <glyph glyph-name="space" unicode=" " horiz-adv-x="508" 
 />
    <glyph glyph-name="space" unicode="&#xa0;" horiz-adv-x="508" 
 />
    <glyph glyph-name="exclam" unicode="!" horiz-adv-x="233" 
d="M157 89q-18 18 -43 18t-42 -18q-18 -18 -18 -43t18 -42q17 -18 42 -18t43 18q18 17 18 42t-18 43zM141 225h-53v1211h53v-1211z" />
    <glyph glyph-name="quotedbl" unicode="&#x22;" horiz-adv-x="389" 
d="M111 1450q-25 0 -42 -18q-18 -17 -18 -43q0 -25 18 -42q17 -18 42 -18h6q-7 -24 -31 -39l17 -23q61 29 70 86q4 29 -3 52q-12 45 -59 45zM265 1450q-25 0 -42 -18q-18 -17 -18 -43q0 -25 18 -42q17 -18 42 -18h6q-7 -24 -31 -39l17 -23q61 29 70 86q4 29 -3 52
q-12 45 -59 45z" />
    <glyph glyph-name="numbersign" unicode="#" horiz-adv-x="1223" 
d="M839 1436l-48 -523h-309l49 523h-54l-49 -523h-397v-53h392l-25 -275h-367v-54h362l-49 -531h54l49 531h309l-49 -531h54l49 531h378v54h-373l25 275h348v53h-343l49 523h-55zM477 860h309l-25 -275h-309z" />
    <glyph glyph-name="dollar" unicode="$" horiz-adv-x="743" 
d="M573 310q-72 -66 -180 -74v448q257 -82 251 -234q-4 -79 -71 -140zM194 1156q59 36 145 43v-443q-248 81 -242 229q6 116 97 171zM393 1199q139 -6 220 -93l39 37q-96 103 -258 110h-1v246h-54v-247q-102 -6 -173 -50q-116 -70 -122 -215q-9 -194 295 -287v-464
q-83 6 -150 45q-76 44 -102 115l-51 -18q33 -89 124 -142q81 -47 179 -54v-246h54v246q131 9 218 90q82 77 86 176q9 199 -304 292v459z" />
    <glyph glyph-name="percent" unicode="%" horiz-adv-x="1011" 
d="M823 1436l-688 -1436h60l688 1436h-60zM108 1213q-51 -50 -51 -122t51 -123q50 -51 122 -51t123 51t51 123t-51 122q-51 51 -123 51t-122 -51zM70 930q-67 67 -67 161t67 160q66 67 160 67t161 -67q66 -66 66 -160t-66 -161q-67 -66 -161 -66t-160 66zM650 398
q-51 -50 -51 -122t51 -123q50 -51 122 -51t123 51t51 123t-51 122q-51 51 -123 51t-122 -51zM612 115q-67 67 -67 161t67 160q66 67 160 67t161 -67q66 -66 66 -160t-66 -161q-67 -66 -161 -66t-160 66z" />
    <glyph glyph-name="ampersand" unicode="&#x26;" horiz-adv-x="891" 
d="M654 54h-243q-132 0 -226 94t-94 227t94 227q94 93 226 93h243v-641zM708 749v218h-54v-218h-153q-131 0 -224 93q-92 93 -92 224t92 223q93 93 224 93h180v54h-180q-153 0 -262 -109q-108 -108 -108 -261q0 -104 54 -193q52 -86 141 -134q-125 -29 -206 -130
q-83 -102 -83 -234q0 -155 110 -265q109 -110 264 -110h297v695h138v54h-138z" />
    <glyph glyph-name="quotesingle" unicode="'" horiz-adv-x="240" 
d="M111 1450q-25 0 -42 -18q-18 -17 -18 -43q0 -25 18 -42q17 -18 42 -18h6q-7 -24 -31 -39l17 -23q61 29 70 86q4 29 -3 52q-12 45 -59 45z" />
    <glyph glyph-name="parenleft" unicode="(" horiz-adv-x="361" 
d="M82 713q0 389 106 583q65 118 172 172v59q-139 -60 -219 -205q-113 -207 -113 -609q0 -663 332 -813v60q-106 56 -171 179q-107 200 -107 574z" />
    <glyph glyph-name="parenright" unicode=")" horiz-adv-x="361" 
d="M169 139q-65 -123 -171 -179v-60q332 150 332 813q0 402 -113 609q-80 145 -219 205v-59q107 -54 172 -172q106 -194 106 -583q0 -374 -107 -574z" />
    <glyph glyph-name="asterisk" unicode="*" horiz-adv-x="580" 
d="M545 1231l-17 51l-212 -69v223h-53v-223l-212 69l-17 -51l212 -69l-131 -180l43 -32l131 180l131 -180l44 32l-131 180z" />
    <glyph glyph-name="plus" unicode="+" horiz-adv-x="566" 
d="M532 782h-226v226h-54v-226h-226v-54h226v-226h54v226h226v54z" />
    <glyph glyph-name="comma" unicode="," horiz-adv-x="240" 
d="M111 107q-25 0 -42 -18q-18 -18 -18 -43t18 -42q17 -18 42 -18h6q-7 -24 -31 -39l17 -23q61 29 70 86q4 29 -3 52q-12 45 -59 45z" />
    <glyph glyph-name="hyphen" unicode="-" horiz-adv-x="573" 
d="M532 727h-503v53h503v-53z" />
    <glyph glyph-name="hyphen" unicode="&#xad;" horiz-adv-x="573" 
d="M532 727h-503v53h503v-53z" />
    <glyph glyph-name="period" unicode="." horiz-adv-x="240" 
d="M157 89q-18 18 -43 18t-42 -18q-18 -18 -18 -43t18 -42q17 -18 42 -18t43 18q18 17 18 42t-18 43z" />
    <glyph glyph-name="slash" unicode="/" horiz-adv-x="615" 
d="M618 1436l-688 -1436h60l688 1436h-60z" />
    <glyph glyph-name="zero" unicode="0" horiz-adv-x="969" 
d="M225 1265q-144 -182 -144 -540q0 -323 104 -501q104 -177 294 -177q191 0 295 177q104 178 104 501q0 358 -144 540q-109 138 -255 138q-145 0 -254 -138zM202 111q-175 183 -175 614q0 372 151 569q125 163 301 163q177 0 302 -163q151 -197 151 -569q0 -431 -175 -614
q-113 -118 -278 -118q-164 0 -277 118z" />
    <glyph glyph-name="one" unicode="1" horiz-adv-x="359" 
d="M89 1436v-54h75v-1382h54v1436h-129z" />
    <glyph glyph-name="two" unicode="2" horiz-adv-x="687" 
d="M627 0h-577l23 40q291 499 383 677q144 280 144 388q0 128 -76 210q-75 81 -195 81q-80 0 -149 -49q-69 -50 -103 -133l-50 21q41 98 123 156q82 59 179 59q141 0 233 -98q92 -97 92 -247q0 -116 -136 -384q-91 -181 -375 -667h484v-54z" />
    <glyph glyph-name="three" unicode="3" horiz-adv-x="790" 
d="M633 910q59 87 59 192q0 144 -103 246q-102 102 -246 102q-91 0 -170 -44q-78 -44 -126 -122l45 -28q87 140 251 140q122 0 208 -86q87 -86 87 -208t-87 -208q-86 -86 -208 -86v-53q148 0 253 -105q105 -104 105 -252t-105 -253t-253 -105q-167 0 -275 130l-41 -34
q124 -150 316 -150q170 0 291 121q120 121 120 291q0 132 -76 238q-75 104 -195 148q94 41 150 126z" />
    <glyph glyph-name="four" unicode="4" horiz-adv-x="764" 
d="M616 1436v-760h-524l95 760h-54l-102 -814h585v-622h54v1436h-54z" />
    <glyph glyph-name="five" unicode="5" horiz-adv-x="785" 
d="M28 125l41 35q107 -124 269 -124q148 0 252 106q105 105 105 253q0 147 -105 251t-253 104h-219l66 683h538v-54h-489l-56 -576h160q171 0 291 -119q121 -120 121 -289q0 -171 -121 -291q-120 -121 -290 -121q-187 0 -310 142z" />
    <glyph glyph-name="six" unicode="6" horiz-adv-x="898" 
d="M204 139q-103 97 -112 238l-1 25q0 148 105 253t253 105t254 -105q105 -106 105 -254q0 -149 -105 -254q-106 -106 -254 -106q-141 0 -245 98zM244 759q-92 -53 -148 -145q12 106 39 203q122 437 513 574l8 60l-26 -9q-418 -146 -547 -611q-64 -228 -46 -431
q0 -171 121 -292t291 -121q171 0 292 121q121 122 121 293t-121 292t-292 121q-110 0 -205 -55z" />
    <glyph glyph-name="seven" unicode="7" horiz-adv-x="820" 
d="M30 1436v-54h685l-432 -1382h56l449 1436h-758z" />
    <glyph glyph-name="eight" unicode="8" horiz-adv-x="877" 
d="M186 145q-104 105 -104 253t104 252q105 105 253 105t252 -105q105 -104 105 -252t-105 -253q-104 -105 -252 -105t-253 105zM231 1310q86 86 208 86t208 -86t86 -208t-86 -208t-208 -86t-208 86q-87 86 -87 208t87 208zM729 910q58 87 58 192q0 144 -102 246t-246 102
t-246 -102t-102 -246q0 -105 58 -192q57 -85 150 -126q-120 -44 -195 -148q-76 -106 -76 -238q0 -170 120 -291q121 -121 291 -121t290 121q121 121 121 291q0 132 -76 238q-75 104 -195 148q93 41 150 126z" />
    <glyph glyph-name="nine" unicode="9" horiz-adv-x="898" 
d="M691 1299q103 -97 112 -238l1 -25q0 -148 -105 -253t-253 -105q-149 0 -254 105q-105 106 -105 254q0 149 105 254q105 106 254 106q141 0 245 -98zM651 679q92 53 147 145q-11 -106 -38 -203q-122 -437 -513 -574l-8 -60l26 9q417 146 547 611q64 228 46 431
q-1 171 -121 292q-121 121 -291 121q-171 0 -292 -121q-121 -122 -121 -293t121 -292t292 -121q110 0 205 55z" />
    <glyph glyph-name="colon" unicode=":" horiz-adv-x="240" 
d="M157 89q-18 18 -43 18t-42 -18q-18 -18 -18 -43t18 -42q17 -18 42 -18t43 18q18 17 18 42t-18 43zM157 796q-18 18 -43 18t-42 -18q-18 -17 -18 -42q0 -26 18 -43q17 -18 42 -18t43 18t18 43t-18 42z" />
    <glyph glyph-name="semicolon" unicode=";" horiz-adv-x="240" 
d="M157 796q-18 18 -43 18t-43 -18q-17 -17 -17 -42q0 -26 17 -43q18 -18 43 -18t43 18q17 18 17 43t-17 42zM111 107q-25 0 -42 -18q-18 -18 -18 -43t18 -42q17 -18 42 -18h6q-7 -24 -31 -39l17 -23q61 29 70 86q4 29 -3 52q-12 45 -59 45z" />
    <glyph glyph-name="semicolon" unicode="&#x37e;" horiz-adv-x="240" 
d="M157 796q-18 18 -43 18t-43 -18q-17 -17 -17 -42q0 -26 17 -43q18 -18 43 -18t43 18q17 18 17 43t-17 42zM111 107q-25 0 -42 -18q-18 -18 -18 -43t18 -42q17 -18 42 -18h6q-7 -24 -31 -39l17 -23q61 29 70 86q4 29 -3 52q-12 45 -59 45z" />
    <glyph glyph-name="less" unicode="&#x3c;" horiz-adv-x="757" 
d="M0 402l719 -358v60l-601 300l601 315v61z" />
    <glyph glyph-name="equal" unicode="=" horiz-adv-x="566" 
d="M532 727h-503v53h503v-53zM532 469h-503v53h503v-53z" />
    <glyph glyph-name="greater" unicode="&#x3e;" horiz-adv-x="757" 
d="M40 780v-61l601 -315l-601 -300v-60l719 358z" />
    <glyph glyph-name="question" unicode="?" horiz-adv-x="606" 
d="M228 225q0 252 18 342q23 109 100 218q17 23 55 68q124 145 124 252q0 129 -76 210q-75 81 -195 81q-114 0 -195 -90l-40 36q97 108 235 108q141 0 233 -98q92 -97 92 -247q0 -84 -45 -163q-26 -46 -92 -124q-37 -43 -52 -64q-71 -99 -90 -196q-18 -86 -18 -333h-54z
M298 89q-18 18 -43 18t-43 -18q-17 -18 -17 -43t17 -42q18 -18 43 -18t43 18q18 17 18 42t-18 43z" />
    <glyph glyph-name="at" unicode="@" horiz-adv-x="1436" 
d="M611 379q-116 35 -169 157q-55 125 -12 267q35 118 122 192t191 74q36 0 71 -10q116 -35 170 -158q54 -125 12 -267q-35 -117 -123 -191q-87 -74 -190 -74q-37 0 -72 10zM788 1447q-280 29 -500 -165q-219 -193 -250 -494t145 -535t455 -263q32 -3 65 -3q163 0 310 81
l-26 47q-163 -90 -344 -71q-257 26 -419 243q-161 217 -132 496q28 280 232 459q202 178 458 151q257 -26 418 -242q163 -216 134 -496q-9 -87 -37 -168q-69 -169 -162 -190q-45 -9 -84 27q-40 37 -38 127q1 64 18 123q10 22 16 45q48 160 -14 304q-63 145 -203 187
q-43 13 -87 13q-121 0 -223 -85t-142 -219q-48 -161 14 -304q64 -146 204 -188q42 -12 87 -12q160 0 276 138q-2 -115 56 -169q59 -55 132 -39q121 27 200 222v2q31 87 40 180q31 301 -144 535t-455 263z" />
    <glyph glyph-name="A" unicode="A" horiz-adv-x="1139" 
d="M934 1436l-634 -1002h-5v-9l-269 -425h64l240 380h651v-380h53v1436h-100zM981 1409v-975h-617z" />
    <glyph glyph-name="B" unicode="B" horiz-adv-x="1011" 
d="M145 749h361q130 0 223 93t93 224t-93 223q-93 93 -223 93h-361v-633zM145 54h451q132 0 226 94t94 227t-94 227q-94 93 -226 93h-451v-641zM91 0v1436h415q153 0 261 -109q109 -108 109 -261q0 -104 -54 -193q-53 -86 -141 -134q125 -29 206 -130q83 -102 83 -234
q0 -155 -110 -265t-264 -110h-505z" />
    <glyph glyph-name="C" unicode="C" horiz-adv-x="1082" 
d="M286 238q-199 198 -199 479q0 280 199 479q198 199 479 199q144 0 276 -59v59q-133 54 -276 54q-303 0 -517 -215q-215 -214 -215 -517t215 -517q214 -215 517 -215q143 0 276 54v58q-132 -58 -276 -58q-281 0 -479 199z" />
    <glyph glyph-name="D" unicode="D" horiz-adv-x="1181" 
d="M144 54v1328h278q274 0 469 -194q195 -195 195 -470t-195 -470q-195 -194 -469 -194h-278zM90 1436v-1436h332q296 0 507 211q210 210 210 507t-210 507q-211 211 -507 211h-332z" />
    <glyph glyph-name="E" unicode="E" horiz-adv-x="870" 
d="M90 1436v-1436h734v54h-680v640h547v53h-547v635h680v54h-734z" />
    <glyph glyph-name="F" unicode="F" horiz-adv-x="870" 
d="M90 1436v-1436h54v694h547v53h-547v635h680v54h-734z" />
    <glyph glyph-name="G" unicode="G" horiz-adv-x="1174" 
d="M252 201q-215 214 -215 517t215 517q214 215 517 215q149 0 285 -58l-21 -49q-126 53 -264 53q-281 0 -479 -199q-199 -198 -199 -479q0 -280 199 -479q198 -199 479 -199q130 0 249 47v609h-360v54h414v-699l-17 -7q-136 -58 -286 -58q-303 0 -517 215z" />
    <glyph glyph-name="H" unicode="H" horiz-adv-x="1139" 
d="M1004 1436v-689h-858v689h-54v-1436h54v694h858v-694h53v1436h-53z" />
    <glyph glyph-name="I" unicode="I" horiz-adv-x="240" 
d="M146 1436h-54v-1436h54v1436z" />
    <glyph glyph-name="J" unicode="J" horiz-adv-x="573" 
d="M32 -15v54h27q172 0 293 121q122 122 122 294v981h54v-981q0 -194 -138 -332q-137 -137 -331 -137h-27z" />
    <glyph glyph-name="K" unicode="K" horiz-adv-x="976" 
d="M853 1436l-712 -886v885h-54v-1435h54v464l171 214l558 -678h70l-593 721l575 715h-69z" />
    <glyph glyph-name="L" unicode="L" horiz-adv-x="863" 
d="M90 1436v-1436h734v54h-680v1382h-54z" />
    <glyph glyph-name="M" unicode="M" horiz-adv-x="1549" 
d="M1374 1436l-596 -1380l-596 1380h-89v-1436h54v1382l597 -1382h69l597 1382v-1382h53v1436h-89z" />
    <glyph glyph-name="N" unicode="N" horiz-adv-x="1142" 
d="M1003 1436v-1383l-827 1383h-84v-1436h54v1382l826 -1382h85v1436h-54z" />
    <glyph glyph-name="O" unicode="O" horiz-adv-x="1528" 
d="M284 1197q-199 -198 -199 -479q0 -280 199 -479q198 -199 479 -199t479 199q199 199 199 479q0 281 -199 479q-198 199 -479 199t-479 -199zM246 201q-215 214 -215 517t215 517q214 215 517 215t517 -215q215 -214 215 -517t-215 -517q-214 -215 -517 -215t-517 215z
" />
    <glyph glyph-name="P" unicode="P" horiz-adv-x="1011" 
d="M144 741h451q132 0 226 94t94 226q0 133 -94 227t-226 94h-451v-641zM144 0h-54v1436h505q154 0 264 -110q109 -110 109 -265t-109 -264q-110 -110 -264 -110h-451v-687z" />
    <glyph glyph-name="Q" unicode="Q" horiz-adv-x="1528" 
d="M130 962q75 193 246 312q174 121 387 121q281 0 480 -198q198 -199 198 -480q0 -310 -235 -513zM284 238q-199 199 -199 479q0 98 27 192l1050 -740q-178 -130 -399 -130q-280 0 -479 199zM1281 1235q-215 214 -518 214t-517 -214q-215 -215 -215 -518t215 -517
q214 -215 517 -215q248 0 445 151l191 -134h93l-241 170q244 219 244 545q0 303 -214 518z" />
    <glyph glyph-name="R" unicode="R" horiz-adv-x="1032" 
d="M144 1382h451q132 0 226 -94t94 -227t-94 -226q-94 -94 -226 -94h-451v641zM995 0l-358 689q141 16 236 122q96 107 96 250q0 155 -110 265t-264 110h-505v-1436h54v687h434l357 -687h60z" />
    <glyph glyph-name="S" unicode="S" horiz-adv-x="962" 
d="M453 -13q-135 6 -248 70q-128 73 -173 194l50 19q39 -106 153 -169q100 -55 220 -61q179 -7 301 91q113 90 118 216q10 233 -396 347q-219 61 -330 162q-111 102 -105 235q9 195 164 289q127 78 311 69q219 -9 350 -149l-40 -37q-115 124 -312 133q-168 7 -281 -61
q-131 -80 -138 -246q-10 -230 396 -344q219 -61 330 -163t105 -237q-7 -150 -139 -256q-128 -103 -310 -103q-13 0 -26 1z" />
    <glyph glyph-name="T" unicode="T" horiz-adv-x="1004" 
d="M30 1436v-54h442v-1382h54v1382h442v54h-938z" />
    <glyph glyph-name="U" unicode="U" horiz-adv-x="1153" 
d="M239 115q-142 141 -142 341v981h54v-981q0 -177 126 -303t303 -126q178 0 303 126q126 126 126 303v981h54v-981q0 -200 -141 -341q-142 -142 -342 -142t-341 142z" />
    <glyph glyph-name="V" unicode="V" horiz-adv-x="1075" 
d="M117 1429v-1429h101l841 1429h-62l-826 -1403v1403h-54z" />
    <glyph glyph-name="W" unicode="W" horiz-adv-x="2001" 
d="M124 1436v-1436h101l838 1423v-1423h101l846 1436h-63l-830 -1410v1410h-109l-830 -1410v1410h-54z" />
    <glyph glyph-name="X" unicode="X" horiz-adv-x="990" 
d="M892 1436l-400 -679l-401 679h-62l431 -732l-414 -704h62l384 651l383 -651h62l-414 704l431 732h-62z" />
    <glyph glyph-name="Y" unicode="Y" horiz-adv-x="1011" 
d="M898 1436l-391 -664h-19l-391 664h-62l436 -740v-696h54v696l435 740h-62z" />
    <glyph glyph-name="Z" unicode="Z" horiz-adv-x="919" 
d="M40 1436v-54h749l-749 -1382h840v54h-749l749 1382h-840z" />
    <glyph glyph-name="bracketleft" unicode="[" horiz-adv-x="240" 
d="M37 1528v-1627h204v54h-150v1519h150v54h-204z" />
    <glyph glyph-name="backslash" unicode="\" horiz-adv-x="615" 
d="M-70 1436l688 -1436h60l-688 1436h-60z" />
    <glyph glyph-name="bracketright" unicode="]" horiz-adv-x="240" 
d="M-3 1528v-54h150v-1519h-150v-54h204v1627h-204z" />
    <glyph glyph-name="asciicircum" unicode="^" horiz-adv-x="446" 
d="M168 1718l-140 -240h62l126 214l125 -214h62l-140 240h-95z" />
    <glyph glyph-name="underscore" unicode="_" horiz-adv-x="573" 
d="M532 -94h-503v53h503v-53z" />
    <glyph glyph-name="grave" unicode="`" horiz-adv-x="156" 
d="M40 1718l45 -240h24v240h-69z" />
    <glyph glyph-name="a" unicode="a" horiz-adv-x="1139" 
d="M934 1436l-634 -1002h-5v-9l-269 -425h64l240 380h651v-380h53v1436h-100zM981 1409v-975h-617z" />
    <glyph glyph-name="b" unicode="b" horiz-adv-x="1011" 
d="M145 749h361q130 0 223 93t93 224t-93 223q-93 93 -223 93h-361v-633zM145 54h451q132 0 226 94t94 227t-94 227q-94 93 -226 93h-451v-641zM91 0v1436h415q153 0 261 -109q109 -108 109 -261q0 -104 -54 -193q-53 -86 -141 -134q125 -29 206 -130q83 -102 83 -234
q0 -155 -110 -265t-264 -110h-505z" />
    <glyph glyph-name="c" unicode="c" horiz-adv-x="1082" 
d="M286 238q-199 198 -199 479q0 280 199 479q198 199 479 199q144 0 276 -59v59q-133 54 -276 54q-303 0 -517 -215q-215 -214 -215 -517t215 -517q214 -215 517 -215q143 0 276 54v58q-132 -58 -276 -58q-281 0 -479 199z" />
    <glyph glyph-name="d" unicode="d" horiz-adv-x="1181" 
d="M144 54v1328h278q274 0 469 -194q195 -195 195 -470t-195 -470q-195 -194 -469 -194h-278zM90 1436v-1436h332q296 0 507 211q210 210 210 507t-210 507q-211 211 -507 211h-332z" />
    <glyph glyph-name="e" unicode="e" horiz-adv-x="870" 
d="M90 1436v-1436h734v54h-680v640h547v53h-547v635h680v54h-734z" />
    <glyph glyph-name="f" unicode="f" horiz-adv-x="870" 
d="M90 1436v-1436h54v694h547v53h-547v635h680v54h-734z" />
    <glyph glyph-name="g" unicode="g" horiz-adv-x="1174" 
d="M252 201q-215 214 -215 517t215 517q214 215 517 215q149 0 285 -58l-21 -49q-126 53 -264 53q-281 0 -479 -199q-199 -198 -199 -479q0 -280 199 -479q198 -199 479 -199q130 0 249 47v609h-360v54h414v-699l-17 -7q-136 -58 -286 -58q-303 0 -517 215z" />
    <glyph glyph-name="h" unicode="h" horiz-adv-x="1139" 
d="M1004 1436v-689h-858v689h-54v-1436h54v694h858v-694h53v1436h-53z" />
    <glyph glyph-name="i" unicode="i" horiz-adv-x="240" 
d="M146 1436h-54v-1436h54v1436z" />
    <glyph glyph-name="j" unicode="j" horiz-adv-x="573" 
d="M32 -15v54h27q172 0 293 121q122 122 122 294v981h54v-981q0 -194 -138 -332q-137 -137 -331 -137h-27z" />
    <glyph glyph-name="k" unicode="k" horiz-adv-x="976" 
d="M853 1436l-712 -886v885h-54v-1435h54v464l171 214l558 -678h70l-593 721l575 715h-69z" />
    <glyph glyph-name="l" unicode="l" horiz-adv-x="863" 
d="M90 1436v-1436h734v54h-680v1382h-54z" />
    <glyph glyph-name="m" unicode="m" horiz-adv-x="1549" 
d="M1374 1436l-596 -1380l-596 1380h-89v-1436h54v1382l597 -1382h69l597 1382v-1382h53v1436h-89z" />
    <glyph glyph-name="n" unicode="n" horiz-adv-x="1142" 
d="M1003 1436v-1383l-827 1383h-84v-1436h54v1382l826 -1382h85v1436h-54z" />
    <glyph glyph-name="o" unicode="o" horiz-adv-x="1528" 
d="M284 1197q-199 -198 -199 -479q0 -280 199 -479q198 -199 479 -199t479 199q199 199 199 479q0 281 -199 479q-198 199 -479 199t-479 -199zM246 201q-215 214 -215 517t215 517q214 215 517 215t517 -215q215 -214 215 -517t-215 -517q-214 -215 -517 -215t-517 215z
" />
    <glyph glyph-name="p" unicode="p" horiz-adv-x="1011" 
d="M144 741h451q132 0 226 94t94 226q0 133 -94 227t-226 94h-451v-641zM144 0h-54v1436h505q154 0 264 -110q109 -110 109 -265t-109 -264q-110 -110 -264 -110h-451v-687z" />
    <glyph glyph-name="q" unicode="q" horiz-adv-x="1528" 
d="M130 962q75 193 246 312q174 121 387 121q281 0 480 -198q198 -199 198 -480q0 -310 -235 -513zM284 238q-199 199 -199 479q0 98 27 192l1050 -740q-178 -130 -399 -130q-280 0 -479 199zM1281 1235q-215 214 -518 214t-517 -214q-215 -215 -215 -518t215 -517
q214 -215 517 -215q248 0 445 151l191 -134h93l-241 170q244 219 244 545q0 303 -214 518z" />
    <glyph glyph-name="r" unicode="r" horiz-adv-x="1032" 
d="M144 1382h451q132 0 226 -94t94 -227t-94 -226q-94 -94 -226 -94h-451v641zM995 0l-358 689q141 16 236 122q96 107 96 250q0 155 -110 265t-264 110h-505v-1436h54v687h434l357 -687h60z" />
    <glyph glyph-name="s" unicode="s" horiz-adv-x="962" 
d="M453 -13q-135 6 -248 70q-128 73 -173 194l50 19q39 -106 153 -169q100 -55 220 -61q179 -7 301 91q113 90 118 216q10 233 -396 347q-219 61 -330 162q-111 102 -105 235q9 195 164 289q127 78 311 69q219 -9 350 -149l-40 -37q-115 124 -312 133q-168 7 -281 -61
q-131 -80 -138 -246q-10 -230 396 -344q219 -61 330 -163t105 -237q-7 -150 -139 -256q-128 -103 -310 -103q-13 0 -26 1z" />
    <glyph glyph-name="t" unicode="t" horiz-adv-x="1004" 
d="M30 1436v-54h442v-1382h54v1382h442v54h-938z" />
    <glyph glyph-name="u" unicode="u" horiz-adv-x="1153" 
d="M239 115q-142 141 -142 341v981h54v-981q0 -177 126 -303t303 -126q178 0 303 126q126 126 126 303v981h54v-981q0 -200 -141 -341q-142 -142 -342 -142t-341 142z" />
    <glyph glyph-name="v" unicode="v" horiz-adv-x="1075" 
d="M117 1429v-1429h101l841 1429h-62l-826 -1403v1403h-54z" />
    <glyph glyph-name="w" unicode="w" horiz-adv-x="2001" 
d="M124 1436v-1436h101l838 1423v-1423h101l846 1436h-63l-830 -1410v1410h-109l-830 -1410v1410h-54z" />
    <glyph glyph-name="x" unicode="x" horiz-adv-x="990" 
d="M892 1436l-400 -679l-401 679h-62l431 -732l-414 -704h62l384 651l383 -651h62l-414 704l431 732h-62z" />
    <glyph glyph-name="y" unicode="y" horiz-adv-x="1011" 
d="M898 1436l-391 -664h-19l-391 664h-62l436 -740v-696h54v696l435 740h-62z" />
    <glyph glyph-name="z" unicode="z" horiz-adv-x="919" 
d="M40 1436v-54h749l-749 -1382h840v54h-749l749 1382h-840z" />
    <glyph glyph-name="braceleft" unicode="{" 
 />
    <glyph glyph-name="bar" unicode="|" 
 />
    <glyph glyph-name="braceright" unicode="}" 
 />
    <glyph glyph-name="asciitilde" unicode="~" horiz-adv-x="601" 
d="M304 1340q-38 20 -59 30q-58 27 -116 -7q-29 -17 -48 -42l-43 32q34 45 88 68q71 31 142 -2q22 -11 61 -32q72 -38 102 -42q45 -5 91 36l36 -40q-56 -50 -114 -50q-48 0 -140 49z" />
    <glyph glyph-name="exclamdown" unicode="&#xa1;" horiz-adv-x="233" 
d="M72 983q17 -18 42 -18t43 18t18 43t-18 42q-18 18 -43 18t-42 -18q-18 -17 -18 -42t18 -43zM88 847h53v-1211h-53v1211z" />
    <glyph glyph-name="cent" unicode="&#xa2;" horiz-adv-x="941" 
d="M208 1042q123 136 304 155v-951q-181 20 -304 155q-123 137 -123 321q0 183 123 320zM565 1200q202 -1 342 -146v73q-148 126 -342 127v245h-53v-248q-203 -19 -342 -171t-139 -358q0 -207 139 -359q139 -151 342 -171v-256h53v254q194 0 342 126v74q-140 -146 -342 -147
v957z" />
    <glyph glyph-name="sterling" unicode="&#xa3;" horiz-adv-x="757" 
d="M105 54q50 213 60 408h444v54h-442q5 208 -49 478q-15 80 -20 115q-16 110 54 192q83 95 217 95q177 0 252 -182l11 -24l49 20l-10 25q-89 215 -302 215q-159 0 -257 -114q-87 -100 -68 -235q5 -36 22 -118q94 -479 -21 -950l-8 -33h680v54h-612z" />
    <glyph glyph-name="currency" unicode="&#xa4;" 
 />
    <glyph glyph-name="yen" unicode="&#xa5;" horiz-adv-x="990" 
d="M894 1436l-391 -664h-19l-391 664h-62l407 -691h-324v-54h353v-187h-353v-54h353v-450h53v450h353v54h-353v187h353v54h-324l407 691h-62z" />
    <glyph glyph-name="brokenbar" unicode="&#xa6;" 
 />
    <glyph glyph-name="section" unicode="&#xa7;" 
 />
    <glyph glyph-name="dieresis" unicode="&#xa8;" horiz-adv-x="460" 
d="M135 1702q-18 18 -43 18t-42 -18q-18 -18 -18 -43t18 -42q17 -18 42 -18t43 18q18 17 18 42t-18 43zM401 1702q-17 18 -42 18t-43 -18t-18 -43t18 -42q18 -18 43 -18t42 18q18 17 18 42t-18 43z" />
    <glyph glyph-name="copyright" unicode="&#xa9;" horiz-adv-x="1131" 
d="M900 580q-141 -141 -338 -141q-198 0 -339 141q-140 140 -140 338t140 338q141 141 339 141q197 0 338 -141q140 -140 140 -338t-140 -338zM938 1295q-156 156 -376 156q-221 0 -377 -156q-156 -157 -156 -377t156 -376t377 -156q220 0 376 156t156 376t-156 377z
M707 615q-56 -22 -117 -22q-134 0 -229 95q-96 96 -96 230q0 135 96 230q95 95 229 95q61 0 117 -22v-58q-55 26 -117 26q-112 0 -191 -79q-80 -80 -80 -192t80 -191q79 -80 191 -80q62 0 117 26v-58z" />
    <glyph glyph-name="ordfeminine" unicode="&#xaa;" horiz-adv-x="648" 
 />
    <glyph glyph-name="guillemotleft" unicode="&#xab;" horiz-adv-x="944" 
 />
    <glyph glyph-name="logicalnot" unicode="&#xac;" 
 />
    <glyph glyph-name="registered" unicode="&#xae;" horiz-adv-x="1153" 
d="M448 940v232h169q48 0 82 -34q34 -35 34 -83q0 -47 -34 -81t-82 -34h-169zM659 891q56 15 91 60q37 46 37 104q0 71 -50 121q-49 49 -120 49h-223v-623h54v284h153l148 -284h60zM231 1252q-140 -140 -140 -338t140 -339q141 -140 339 -140t338 140q140 141 140 339
t-140 338t-338 140t-339 -140zM193 537q-156 156 -156 377q0 220 156 376t377 156q220 0 376 -156t156 -376q0 -221 -156 -377t-376 -156q-221 0 -377 156z" />
    <glyph glyph-name="macron" unicode="&#xaf;" horiz-adv-x="670" 
 />
    <glyph glyph-name="degree" unicode="&#xb0;" horiz-adv-x="255" 
d="M97 1368q-12 -11 -12 -28q0 -16 12 -28q11 -12 28 -12q16 0 28 12t12 28q0 17 -12 28q-12 12 -28 12q-17 0 -28 -12zM59 1274q-28 27 -28 66t28 66q27 28 66 28t66 -28q28 -27 28 -66t-28 -66q-27 -28 -66 -28t-66 28z" />
    <glyph glyph-name="plusminus" unicode="&#xb1;" 
 />
    <glyph glyph-name="uni00B2" unicode="&#xb2;" 
 />
    <glyph glyph-name="uni00B3" unicode="&#xb3;" 
 />
    <glyph glyph-name="acute" unicode="&#xb4;" horiz-adv-x="156" 
d="M40 1718v-240h24l45 240h-69z" />
    <glyph glyph-name="mu" unicode="&#xb5;" horiz-adv-x="1180" 
 />
    <glyph glyph-name="paragraph" unicode="&#xb6;" horiz-adv-x="1024" 
 />
    <glyph glyph-name="periodcentered" unicode="&#xb7;" horiz-adv-x="508" 
 />
    <glyph glyph-name="periodcentered" unicode="&#x2219;" horiz-adv-x="508" 
 />
    <glyph glyph-name="cedilla" unicode="&#xb8;" horiz-adv-x="1024" 
 />
    <glyph glyph-name="uni00B9" unicode="&#xb9;" 
 />
    <glyph glyph-name="ordmasculine" unicode="&#xba;" horiz-adv-x="718" 
 />
    <glyph glyph-name="guillemotright" unicode="&#xbb;" horiz-adv-x="944" 
 />
    <glyph glyph-name="onequarter" unicode="&#xbc;" horiz-adv-x="1708" 
 />
    <glyph glyph-name="onehalf" unicode="&#xbd;" horiz-adv-x="1964" 
 />
    <glyph glyph-name="threequarters" unicode="&#xbe;" horiz-adv-x="1708" 
 />
    <glyph glyph-name="questiondown" unicode="&#xbf;" horiz-adv-x="606" 
d="M369 841q0 -252 -18 -342q-22 -109 -100 -218q-16 -23 -54 -68q-124 -145 -124 -252q0 -129 75 -210q76 -81 196 -81q113 0 195 90l40 -36q-98 -108 -235 -108q-141 0 -233 98q-92 97 -92 247q0 84 44 163q27 46 93 124q37 43 52 64q70 99 90 196q18 86 18 333h53z
M300 977q17 -18 42 -18t43 18t18 43t-18 42q-18 18 -43 18t-42 -18q-18 -17 -18 -42t18 -43z" />
    <glyph glyph-name="Agrave" unicode="&#xc0;" horiz-adv-x="1139" 
d="M934 1436l-634 -1002h-5v-9l-269 -425h64l240 380h651v-380h53v1436h-100zM981 1409v-975h-617zM965 1718l45 -240h24v240h-69z" />
    <glyph glyph-name="Aacute" unicode="&#xc1;" horiz-adv-x="1139" 
d="M934 1436l-634 -1002h-5v-9l-269 -425h64l240 380h651v-380h53v1436h-100zM981 1409v-975h-617zM937 1718v-240h24l45 240h-69z" />
    <glyph glyph-name="Acircumflex" unicode="&#xc2;" horiz-adv-x="1139" 
d="M934 1436l-634 -1002h-5v-9l-269 -425h64l240 380h651v-380h53v1436h-100zM981 1409v-975h-617zM929 1718l-140 -240h63l125 214l125 -214h63l-141 240h-95z" />
    <glyph glyph-name="Atilde" unicode="&#xc3;" horiz-adv-x="1139" 
d="M934 1436l-634 -1002h-5v-9l-269 -425h64l240 380h651v-380h53v1436h-100zM981 1409v-975h-617zM780 1609q-38 20 -59 30q-59 27 -116 -7q-30 -17 -48 -42l-43 32q33 45 87 68q72 31 143 -2q22 -11 61 -32q72 -38 101 -42q46 -5 92 36l36 -40q-56 -50 -114 -50
q-48 0 -140 49z" />
    <glyph glyph-name="Adieresis" unicode="&#xc4;" horiz-adv-x="1139" 
d="M934 1436l-634 -1002h-5v-9l-269 -425h64l240 380h651v-380h53v1436h-100zM981 1409v-975h-617zM750 1702q-18 18 -43 18t-42 -18q-18 -18 -18 -43t18 -42q17 -18 42 -18t43 18q18 17 18 42t-18 43zM1016 1702q-17 18 -42 18t-43 -18t-18 -43t18 -42q18 -18 43 -18t42 18
q18 17 18 42t-18 43z" />
    <glyph glyph-name="Aring" unicode="&#xc5;" horiz-adv-x="1139" 
d="M934 1436l-634 -1002h-5v-9l-269 -425h64l240 380h651v-380h53v1436h-100zM981 1409v-975h-617zM949 1651q-12 -11 -12 -28q0 -16 12 -28q11 -12 28 -12q16 0 28 12t12 28q0 17 -12 28q-12 12 -28 12q-17 0 -28 -12zM911 1557q-28 27 -28 66t28 66q27 28 66 28t66 -28
q28 -27 28 -66t-28 -66q-27 -28 -66 -28t-66 28z" />
    <glyph glyph-name="AE" unicode="&#xc6;" horiz-adv-x="1754" 
d="M939 1436l-634 -1002h-5v-9l-269 -425h64l240 380h651v-380h734v54h-680v640h547v53h-547v635h680v54h-781zM986 1409v-975h-617z" />
    <glyph glyph-name="Ccedilla" unicode="&#xc7;" horiz-adv-x="1075" 
d="M281 234q-199 200 -199 481t199 481q200 199 481 199q145 0 277 -59v59q-133 54 -277 54q-303 0 -519 -215q-215 -216 -215 -519q0 -285 193 -496q192 -209 472 -235v-175h27q47 0 82 -24q34 -23 34 -56q0 -32 -34 -55q-35 -24 -82 -24t-81 24q-34 23 -34 55v27h-54v-27
q0 -55 49 -94q50 -39 120 -39t120 39t50 94q0 50 -41 87t-102 45v120q18 0 15 0q144 0 277 54v59q-132 -59 -277 -59q-281 0 -481 199z" />
    <glyph glyph-name="Egrave" unicode="&#xc8;" horiz-adv-x="870" 
d="M90 1436v-1436h734v54h-680v640h547v53h-547v635h680v54h-734zM422 1718l46 -240h24v240h-70z" />
    <glyph glyph-name="Eacute" unicode="&#xc9;" horiz-adv-x="870" 
d="M90 1436v-1436h734v54h-680v640h547v53h-547v635h680v54h-734zM422 1718v-240h24l46 240h-70z" />
    <glyph glyph-name="Ecircumflex" unicode="&#xca;" horiz-adv-x="870" 
d="M90 1436v-1436h734v54h-680v640h547v53h-547v635h680v54h-734zM409 1718l-140 -240h63l125 214l125 -214h63l-140 240h-96z" />
    <glyph glyph-name="Edieresis" unicode="&#xcb;" horiz-adv-x="870" 
d="M90 1436v-1436h734v54h-680v640h547v53h-547v635h680v54h-734zM382 1702q-18 18 -43 18t-42 -18q-18 -18 -18 -43t18 -42q17 -18 42 -18t43 18q18 17 18 42t-18 43zM648 1702q-17 18 -42 18t-43 -18t-18 -43t18 -42q18 -18 43 -18t42 18q18 17 18 42t-18 43z" />
    <glyph glyph-name="Igrave" unicode="&#xcc;" horiz-adv-x="240" 
d="M146 1436h-54v-1436h54v1436zM77 1718l45 -240h24v240h-69z" />
    <glyph glyph-name="Iacute" unicode="&#xcd;" horiz-adv-x="240" 
d="M146 1436h-54v-1436h54v1436zM92 1718v-240h24l45 240h-69z" />
    <glyph glyph-name="Icircumflex" unicode="&#xce;" horiz-adv-x="240" 
d="M146 1436h-54v-1436h54v1436zM74 1718l-140 -240h62l126 214l125 -214h62l-140 240h-95z" />
    <glyph glyph-name="Idieresis" unicode="&#xcf;" horiz-adv-x="240" 
d="M146 1436h-54v-1436h54v1436zM36 1702q-18 18 -43 18t-42 -18q-18 -18 -18 -43t18 -42q17 -18 42 -18t43 18q18 17 18 42t-18 43zM302 1702q-17 18 -42 18t-43 -18t-18 -43t18 -42q18 -18 43 -18t42 18q18 17 18 42t-18 43z" />
    <glyph glyph-name="Eth" unicode="&#xd0;" horiz-adv-x="1266" 
d="M225 54v637h308v54h-308v637h278q275 0 470 -194q195 -195 195 -470t-195 -470q-195 -194 -470 -194h-278zM172 1436v-691h-140v-54h140v-691h331q297 0 508 211q210 210 210 507t-210 507q-211 211 -508 211h-331z" />
    <glyph glyph-name="Ntilde" unicode="&#xd1;" horiz-adv-x="1142" 
d="M1003 1436v-1383l-827 1383h-84v-1436h54v1382l826 -1382h85v1436h-54zM580 1609q-37 20 -58 30q-59 27 -116 -7q-30 -17 -48 -42l-44 32q34 45 88 68q72 31 143 -2q21 -11 61 -32q71 -38 101 -42q45 -5 92 36l36 -40q-56 -50 -115 -50q-48 0 -140 49z" />
    <glyph glyph-name="Ograve" unicode="&#xd2;" horiz-adv-x="1528" 
d="M284 1197q-199 -198 -199 -479q0 -280 199 -479q198 -199 479 -199t479 199q199 199 199 479q0 281 -199 479q-198 199 -479 199t-479 -199zM246 201q-215 214 -215 517t215 517q214 215 517 215t517 -215q215 -214 215 -517t-215 -517q-214 -215 -517 -215t-517 215z
M728 1718l46 -240h24v240h-70z" />
    <glyph glyph-name="Oacute" unicode="&#xd3;" horiz-adv-x="1528" 
d="M284 1197q-199 -198 -199 -479q0 -280 199 -479q198 -199 479 -199t479 199q199 199 199 479q0 281 -199 479q-198 199 -479 199t-479 -199zM246 201q-215 214 -215 517t215 517q214 215 517 215t517 -215q215 -214 215 -517t-215 -517q-214 -215 -517 -215t-517 215z
M728 1718v-240h24l46 240h-70z" />
    <glyph glyph-name="Ocircumflex" unicode="&#xd4;" horiz-adv-x="1528" 
d="M284 1197q-199 -198 -199 -479q0 -280 199 -479q198 -199 479 -199t479 199q199 199 199 479q0 281 -199 479q-198 199 -479 199t-479 -199zM246 201q-215 214 -215 517t215 517q214 215 517 215t517 -215q215 -214 215 -517t-215 -517q-214 -215 -517 -215t-517 215z
M715 1718l-140 -240h63l125 214l125 -214h63l-140 240h-96z" />
    <glyph glyph-name="Otilde" unicode="&#xd5;" horiz-adv-x="1528" 
d="M284 1197q-199 -198 -199 -479q0 -280 199 -479q198 -199 479 -199t479 199q199 199 199 479q0 281 -199 479q-198 199 -479 199t-479 -199zM246 201q-215 214 -215 517t215 517q214 215 517 215t517 -215q215 -214 215 -517t-215 -517q-214 -215 -517 -215t-517 215z
M769 1609q-38 20 -59 30q-58 27 -116 -7q-29 -17 -48 -42l-43 32q34 45 88 68q71 31 142 -2q22 -11 61 -32q72 -38 102 -42q45 -5 91 36l36 -40q-56 -50 -114 -50q-48 0 -140 49z" />
    <glyph glyph-name="Odieresis" unicode="&#xd6;" horiz-adv-x="1528" 
d="M284 1197q-199 -198 -199 -479q0 -280 199 -479q198 -199 479 -199t479 199q199 199 199 479q0 281 -199 479q-198 199 -479 199t-479 -199zM246 201q-215 214 -215 517t215 517q214 215 517 215t517 -215q215 -214 215 -517t-215 -517q-214 -215 -517 -215t-517 215z
M670 1702q-18 18 -43 18t-42 -18q-18 -18 -18 -43t18 -42q17 -18 42 -18t43 18q18 17 18 42t-18 43zM936 1702q-17 18 -42 18t-43 -18t-18 -43t18 -42q18 -18 43 -18t42 18q18 17 18 42t-18 43z" />
    <glyph glyph-name="multiply" unicode="&#xd7;" 
 />
    <glyph glyph-name="Oslash" unicode="&#xd8;" horiz-adv-x="1614" 
 />
    <glyph glyph-name="Ugrave" unicode="&#xd9;" horiz-adv-x="1153" 
d="M239 115q-142 141 -142 341v981h54v-981q0 -177 126 -303t303 -126q178 0 303 126q126 126 126 303v981h54v-981q0 -200 -141 -341q-142 -142 -342 -142t-341 142zM545 1718l46 -240h24v240h-70z" />
    <glyph glyph-name="Uacute" unicode="&#xda;" horiz-adv-x="1153" 
d="M239 115q-142 141 -142 341v981h54v-981q0 -177 126 -303t303 -126q178 0 303 126q126 126 126 303v981h54v-981q0 -200 -141 -341q-142 -142 -342 -142t-341 142zM545 1718v-240h24l46 240h-70z" />
    <glyph glyph-name="Ucircumflex" unicode="&#xdb;" horiz-adv-x="1153" 
d="M239 115q-142 141 -142 341v981h54v-981q0 -177 126 -303t303 -126q178 0 303 126q126 126 126 303v981h54v-981q0 -200 -141 -341q-142 -142 -342 -142t-341 142zM533 1718l-141 -240h63l125 214l125 -214h63l-140 240h-95z" />
    <glyph glyph-name="Udieresis" unicode="&#xdc;" horiz-adv-x="1153" 
d="M239 115q-142 141 -142 341v981h54v-981q0 -177 126 -303t303 -126q178 0 303 126q126 126 126 303v981h54v-981q0 -200 -141 -341q-142 -142 -342 -142t-341 142zM489 1702q-18 18 -43 18t-42 -18q-18 -18 -18 -43t18 -42q17 -18 42 -18t43 18q18 17 18 42t-18 43z
M755 1702q-17 18 -42 18t-43 -18t-18 -43t18 -42q18 -18 43 -18t42 18q18 17 18 42t-18 43z" />
    <glyph glyph-name="Yacute" unicode="&#xdd;" horiz-adv-x="1011" 
d="M898 1436l-391 -664h-19l-391 664h-62l436 -740v-696h54v696l435 740h-62zM463 1718v-240h24l45 240h-69z" />
    <glyph glyph-name="Thorn" unicode="&#xde;" horiz-adv-x="1153" 
d="M147 209v1014h410q210 0 359 -149q148 -148 148 -358t-148 -359q-149 -148 -359 -148h-410zM147 1277v159h-54v-1436h54v155h410q232 0 397 164q164 165 164 397t-164 396q-165 165 -397 165h-410z" />
    <glyph glyph-name="germandbls" unicode="&#xdf;" horiz-adv-x="884" 
d="M726 909q58 87 58 192q0 144 -102 246t-246 102t-246 -102t-102 -246v-1101h54v1101q0 122 86 208t208 86t208 -86q87 -86 87 -208t-87 -208q-86 -86 -208 -86v-53q148 0 253 -105q104 -104 104 -252t-104 -253q-105 -105 -253 -105q-80 0 -152 34l-23 -48
q83 -40 175 -40q170 0 291 121q120 121 120 291q0 132 -76 238q-75 104 -195 148q93 41 150 126z" />
    <glyph glyph-name="agrave" unicode="&#xe0;" horiz-adv-x="1139" 
d="M934 1436l-634 -1002h-5v-9l-269 -425h64l240 380h651v-380h53v1436h-100zM981 1409v-975h-617zM965 1718l45 -240h24v240h-69z" />
    <glyph glyph-name="aacute" unicode="&#xe1;" horiz-adv-x="1139" 
d="M934 1436l-634 -1002h-5v-9l-269 -425h64l240 380h651v-380h53v1436h-100zM981 1409v-975h-617zM937 1718v-240h24l45 240h-69z" />
    <glyph glyph-name="acircumflex" unicode="&#xe2;" horiz-adv-x="1139" 
d="M934 1436l-634 -1002h-5v-9l-269 -425h64l240 380h651v-380h53v1436h-100zM981 1409v-975h-617zM929 1718l-140 -240h63l125 214l125 -214h63l-141 240h-95z" />
    <glyph glyph-name="atilde" unicode="&#xe3;" horiz-adv-x="1139" 
d="M934 1436l-634 -1002h-5v-9l-269 -425h64l240 380h651v-380h53v1436h-100zM981 1409v-975h-617zM780 1609q-38 20 -59 30q-59 27 -116 -7q-30 -17 -48 -42l-43 32q33 45 87 68q72 31 143 -2q22 -11 61 -32q72 -38 101 -42q46 -5 92 36l36 -40q-56 -50 -114 -50
q-48 0 -140 49z" />
    <glyph glyph-name="adieresis" unicode="&#xe4;" horiz-adv-x="1139" 
d="M934 1436l-634 -1002h-5v-9l-269 -425h64l240 380h651v-380h53v1436h-100zM981 1409v-975h-617zM750 1702q-18 18 -43 18t-42 -18q-18 -18 -18 -43t18 -42q17 -18 42 -18t43 18q18 17 18 42t-18 43zM1016 1702q-17 18 -42 18t-43 -18t-18 -43t18 -42q18 -18 43 -18t42 18
q18 17 18 42t-18 43z" />
    <glyph glyph-name="aring" unicode="&#xe5;" horiz-adv-x="1139" 
d="M934 1436l-634 -1002h-5v-9l-269 -425h64l240 380h651v-380h53v1436h-100zM981 1409v-975h-617zM949 1651q-12 -11 -12 -28q0 -16 12 -28q11 -12 28 -12q16 0 28 12t12 28q0 17 -12 28q-12 12 -28 12q-17 0 -28 -12zM911 1557q-28 27 -28 66t28 66q27 28 66 28t66 -28
q28 -27 28 -66t-28 -66q-27 -28 -66 -28t-66 28z" />
    <glyph glyph-name="ae" unicode="&#xe6;" horiz-adv-x="1754" 
d="M939 1436l-634 -1002h-5v-9l-269 -425h64l240 380h651v-380h734v54h-680v640h547v53h-547v635h680v54h-781zM986 1409v-975h-617z" />
    <glyph glyph-name="ccedilla" unicode="&#xe7;" horiz-adv-x="1075" 
d="M281 234q-199 200 -199 481t199 481q200 199 481 199q145 0 277 -59v59q-133 54 -277 54q-303 0 -519 -215q-215 -216 -215 -519q0 -285 193 -496q192 -209 472 -235v-175h27q47 0 82 -24q34 -23 34 -56q0 -32 -34 -55q-35 -24 -82 -24t-81 24q-34 23 -34 55v27h-54v-27
q0 -55 49 -94q50 -39 120 -39t120 39t50 94q0 50 -41 87t-102 45v120q18 0 15 0q144 0 277 54v59q-132 -59 -277 -59q-281 0 -481 199z" />
    <glyph glyph-name="egrave" unicode="&#xe8;" horiz-adv-x="870" 
d="M90 1436v-1436h734v54h-680v640h547v53h-547v635h680v54h-734zM422 1718l46 -240h24v240h-70z" />
    <glyph glyph-name="eacute" unicode="&#xe9;" horiz-adv-x="870" 
d="M90 1436v-1436h734v54h-680v640h547v53h-547v635h680v54h-734zM422 1718v-240h24l46 240h-70z" />
    <glyph glyph-name="ecircumflex" unicode="&#xea;" horiz-adv-x="870" 
d="M90 1436v-1436h734v54h-680v640h547v53h-547v635h680v54h-734zM409 1718l-140 -240h63l125 214l125 -214h63l-140 240h-96z" />
    <glyph glyph-name="edieresis" unicode="&#xeb;" horiz-adv-x="870" 
d="M90 1436v-1436h734v54h-680v640h547v53h-547v635h680v54h-734zM382 1702q-18 18 -43 18t-42 -18q-18 -18 -18 -43t18 -42q17 -18 42 -18t43 18q18 17 18 42t-18 43zM648 1702q-17 18 -42 18t-43 -18t-18 -43t18 -42q18 -18 43 -18t42 18q18 17 18 42t-18 43z" />
    <glyph glyph-name="igrave" unicode="&#xec;" horiz-adv-x="240" 
d="M146 1436h-54v-1436h54v1436zM77 1718l45 -240h24v240h-69z" />
    <glyph glyph-name="iacute" unicode="&#xed;" horiz-adv-x="240" 
d="M146 1436h-54v-1436h54v1436zM92 1718v-240h24l45 240h-69z" />
    <glyph glyph-name="icircumflex" unicode="&#xee;" horiz-adv-x="240" 
d="M146 1436h-54v-1436h54v1436zM74 1718l-140 -240h62l126 214l125 -214h62l-140 240h-95z" />
    <glyph glyph-name="idieresis" unicode="&#xef;" horiz-adv-x="240" 
d="M146 1436h-54v-1436h54v1436zM36 1702q-18 18 -43 18t-42 -18q-18 -18 -18 -43t18 -42q17 -18 42 -18t43 18q18 17 18 42t-18 43zM302 1702q-17 18 -42 18t-43 -18t-18 -43t18 -42q18 -18 43 -18t42 18q18 17 18 42t-18 43z" />
    <glyph glyph-name="eth" unicode="&#xf0;" horiz-adv-x="1266" 
d="M225 54v637h308v54h-308v637h278q275 0 470 -194q195 -195 195 -470t-195 -470q-195 -194 -470 -194h-278zM172 1436v-691h-140v-54h140v-691h331q297 0 508 211q210 210 210 507t-210 507q-211 211 -508 211h-331z" />
    <glyph glyph-name="ntilde" unicode="&#xf1;" horiz-adv-x="1142" 
d="M1003 1436v-1383l-827 1383h-84v-1436h54v1382l826 -1382h85v1436h-54zM580 1609q-37 20 -58 30q-59 27 -116 -7q-30 -17 -48 -42l-44 32q34 45 88 68q72 31 143 -2q21 -11 61 -32q71 -38 101 -42q45 -5 92 36l36 -40q-56 -50 -115 -50q-48 0 -140 49z" />
    <glyph glyph-name="ograve" unicode="&#xf2;" horiz-adv-x="1528" 
d="M284 1197q-199 -198 -199 -479q0 -280 199 -479q198 -199 479 -199t479 199q199 199 199 479q0 281 -199 479q-198 199 -479 199t-479 -199zM246 201q-215 214 -215 517t215 517q214 215 517 215t517 -215q215 -214 215 -517t-215 -517q-214 -215 -517 -215t-517 215z
M728 1718l46 -240h24v240h-70z" />
    <glyph glyph-name="oacute" unicode="&#xf3;" horiz-adv-x="1528" 
d="M284 1197q-199 -198 -199 -479q0 -280 199 -479q198 -199 479 -199t479 199q199 199 199 479q0 281 -199 479q-198 199 -479 199t-479 -199zM246 201q-215 214 -215 517t215 517q214 215 517 215t517 -215q215 -214 215 -517t-215 -517q-214 -215 -517 -215t-517 215z
M728 1718v-240h24l46 240h-70z" />
    <glyph glyph-name="ocircumflex" unicode="&#xf4;" horiz-adv-x="1528" 
d="M284 1197q-199 -198 -199 -479q0 -280 199 -479q198 -199 479 -199t479 199q199 199 199 479q0 281 -199 479q-198 199 -479 199t-479 -199zM246 201q-215 214 -215 517t215 517q214 215 517 215t517 -215q215 -214 215 -517t-215 -517q-214 -215 -517 -215t-517 215z
M715 1718l-140 -240h63l125 214l125 -214h63l-140 240h-96z" />
    <glyph glyph-name="otilde" unicode="&#xf5;" horiz-adv-x="1528" 
d="M284 1197q-199 -198 -199 -479q0 -280 199 -479q198 -199 479 -199t479 199q199 199 199 479q0 281 -199 479q-198 199 -479 199t-479 -199zM246 201q-215 214 -215 517t215 517q214 215 517 215t517 -215q215 -214 215 -517t-215 -517q-214 -215 -517 -215t-517 215z
M769 1609q-38 20 -59 30q-58 27 -116 -7q-29 -17 -48 -42l-43 32q34 45 88 68q71 31 142 -2q22 -11 61 -32q72 -38 102 -42q45 -5 91 36l36 -40q-56 -50 -114 -50q-48 0 -140 49z" />
    <glyph glyph-name="odieresis" unicode="&#xf6;" horiz-adv-x="1528" 
d="M284 1197q-199 -198 -199 -479q0 -280 199 -479q198 -199 479 -199t479 199q199 199 199 479q0 281 -199 479q-198 199 -479 199t-479 -199zM246 201q-215 214 -215 517t215 517q214 215 517 215t517 -215q215 -214 215 -517t-215 -517q-214 -215 -517 -215t-517 215z
M670 1702q-18 18 -43 18t-42 -18q-18 -18 -18 -43t18 -42q17 -18 42 -18t43 18q18 17 18 42t-18 43zM936 1702q-17 18 -42 18t-43 -18t-18 -43t18 -42q18 -18 43 -18t42 18q18 17 18 42t-18 43z" />
    <glyph glyph-name="divide" unicode="&#xf7;" 
 />
    <glyph glyph-name="oslash" unicode="&#xf8;" horiz-adv-x="1010" 
 />
    <glyph glyph-name="ugrave" unicode="&#xf9;" horiz-adv-x="1153" 
d="M239 115q-142 141 -142 341v981h54v-981q0 -177 126 -303t303 -126q178 0 303 126q126 126 126 303v981h54v-981q0 -200 -141 -341q-142 -142 -342 -142t-341 142zM545 1718l46 -240h24v240h-70z" />
    <glyph glyph-name="uacute" unicode="&#xfa;" horiz-adv-x="1153" 
d="M239 115q-142 141 -142 341v981h54v-981q0 -177 126 -303t303 -126q178 0 303 126q126 126 126 303v981h54v-981q0 -200 -141 -341q-142 -142 -342 -142t-341 142zM545 1718v-240h24l46 240h-70z" />
    <glyph glyph-name="ucircumflex" unicode="&#xfb;" horiz-adv-x="1153" 
d="M239 115q-142 141 -142 341v981h54v-981q0 -177 126 -303t303 -126q178 0 303 126q126 126 126 303v981h54v-981q0 -200 -141 -341q-142 -142 -342 -142t-341 142zM533 1718l-141 -240h63l125 214l125 -214h63l-140 240h-95z" />
    <glyph glyph-name="udieresis" unicode="&#xfc;" horiz-adv-x="1153" 
d="M239 115q-142 141 -142 341v981h54v-981q0 -177 126 -303t303 -126q178 0 303 126q126 126 126 303v981h54v-981q0 -200 -141 -341q-142 -142 -342 -142t-341 142zM489 1702q-18 18 -43 18t-42 -18q-18 -18 -18 -43t18 -42q17 -18 42 -18t43 18q18 17 18 42t-18 43z
M755 1702q-17 18 -42 18t-43 -18t-18 -43t18 -42q18 -18 43 -18t42 18q18 17 18 42t-18 43z" />
    <glyph glyph-name="yacute" unicode="&#xfd;" horiz-adv-x="1011" 
d="M898 1436l-391 -664h-19l-391 664h-62l436 -740v-696h54v696l435 740h-62zM463 1718v-240h24l45 240h-69z" />
    <glyph glyph-name="thorn" unicode="&#xfe;" horiz-adv-x="1153" 
d="M147 209v1014h410q210 0 359 -149q148 -148 148 -358t-148 -359q-149 -148 -359 -148h-410zM147 1277v159h-54v-1436h54v155h410q232 0 397 164q164 165 164 397t-164 396q-165 165 -397 165h-410z" />
    <glyph glyph-name="ydieresis" unicode="&#xff;" horiz-adv-x="1011" 
d="M898 1436l-391 -664h-19l-391 664h-62l436 -740v-696h54v696l435 740h-62zM410 1702q-18 18 -43 18t-42 -18q-18 -18 -18 -43t18 -42q17 -18 42 -18t43 18q18 17 18 42t-18 43zM676 1702q-17 18 -42 18t-43 -18t-18 -43t18 -42q18 -18 43 -18t42 18q18 17 18 42t-18 43z
" />
    <glyph glyph-name="dotlessi" unicode="&#x131;" horiz-adv-x="240" 
d="M146 1436h-54v-1436h54v1436z" />
    <glyph glyph-name="circumflex" unicode="&#x2c6;" horiz-adv-x="1024" 
 />
    <glyph glyph-name="caron" unicode="&#x2c7;" horiz-adv-x="1024" 
 />
    <glyph glyph-name="uni02C9" unicode="&#x2c9;" horiz-adv-x="1024" 
 />
    <glyph glyph-name="breve" unicode="&#x2d8;" horiz-adv-x="1024" 
 />
    <glyph glyph-name="dotaccent" unicode="&#x2d9;" horiz-adv-x="1024" 
 />
    <glyph glyph-name="ring" unicode="&#x2da;" horiz-adv-x="255" 
d="M97 1368q-12 -11 -12 -28q0 -16 12 -28q11 -12 28 -12q16 0 28 12t12 28q0 17 -12 28q-12 12 -28 12q-17 0 -28 -12zM59 1274q-28 27 -28 66t28 66q27 28 66 28t66 -28q28 -27 28 -66t-28 -66q-27 -28 -66 -28t-66 28z" />
    <glyph glyph-name="ogonek" unicode="&#x2db;" horiz-adv-x="1024" 
 />
    <glyph glyph-name="tilde" unicode="&#x2dc;" horiz-adv-x="1024" 
 />
    <glyph glyph-name="hungarumlaut" unicode="&#x2dd;" horiz-adv-x="1024" 
 />
    <glyph glyph-name="endash" unicode="&#x2013;" horiz-adv-x="1108" 
 />
    <glyph glyph-name="emdash" unicode="&#x2014;" horiz-adv-x="2048" 
 />
    <glyph glyph-name="quoteleft" unicode="&#x2018;" horiz-adv-x="240" 
d="M114 1267q25 0 43 17q17 18 17 43t-17 43q-18 18 -43 18q-3 0 -6 -1q8 25 32 39l-18 24q-60 -29 -69 -87q-5 -28 2 -51q12 -45 59 -45z" />
    <glyph glyph-name="quoteright" unicode="&#x2019;" horiz-adv-x="240" 
d="M111 1450q-25 0 -42 -18q-18 -17 -18 -43q0 -25 18 -42q17 -18 42 -18h6q-7 -24 -31 -39l17 -23q61 29 70 86q4 29 -3 52q-12 45 -59 45z" />
    <glyph glyph-name="quotesinglbase" unicode="&#x201a;" horiz-adv-x="557" 
 />
    <glyph glyph-name="quotedblleft" unicode="&#x201c;" horiz-adv-x="389" 
d="M268 1267q25 0 43 17q17 18 17 43t-17 43q-18 18 -43 18q-3 0 -6 -1q8 25 32 39l-18 24q-60 -29 -69 -87q-5 -28 2 -51q12 -45 59 -45zM114 1267q25 0 43 17q17 18 17 43t-17 43q-18 18 -43 18q-3 0 -6 -1q8 25 32 39l-18 24q-60 -29 -69 -87q-5 -28 2 -51q12 -45 59 -45
z" />
    <glyph glyph-name="quotedblright" unicode="&#x201d;" horiz-adv-x="389" 
d="M111 1450q-25 0 -42 -18q-18 -17 -18 -43q0 -25 18 -42q17 -18 42 -18h6q-7 -24 -31 -39l17 -23q61 29 70 86q4 29 -3 52q-12 45 -59 45zM265 1450q-25 0 -42 -18q-18 -17 -18 -43q0 -25 18 -42q17 -18 42 -18h6q-7 -24 -31 -39l17 -23q61 29 70 86q4 29 -3 52
q-12 45 -59 45z" />
    <glyph glyph-name="quotedblbase" unicode="&#x201e;" horiz-adv-x="910" 
 />
    <glyph glyph-name="dagger" unicode="&#x2020;" 
 />
    <glyph glyph-name="daggerdbl" unicode="&#x2021;" 
 />
    <glyph glyph-name="bullet" unicode="&#x2022;" horiz-adv-x="240" 
d="M157 796q-18 18 -43 18t-42 -18q-18 -17 -18 -42q0 -26 18 -43q17 -18 42 -18t43 18t18 43t-18 42z" />
    <glyph glyph-name="ellipsis" unicode="&#x2026;" horiz-adv-x="2048" 
 />
    <glyph glyph-name="guilsinglleft" unicode="&#x2039;" horiz-adv-x="631" 
 />
    <glyph glyph-name="guilsinglright" unicode="&#x203a;" horiz-adv-x="631" 
 />
    <glyph glyph-name="fraction" unicode="&#x2044;" horiz-adv-x="342" 
 />
    <glyph glyph-name="fraction" unicode="&#x2215;" horiz-adv-x="342" 
 />
    <glyph glyph-name="franc" unicode="&#x20a3;" 
 />
    <glyph glyph-name="lira" unicode="&#x20a4;" 
 />
    <glyph glyph-name="peseta" unicode="&#x20a7;" horiz-adv-x="2028" 
 />
    <glyph glyph-name="Euro" unicode="&#x20ac;" horiz-adv-x="1153" 
d="M843 602v54h-555q-3 32 -3 61q0 59 11 119h547v54h-535q58 221 239 363q184 144 418 144q72 0 143 -15l8 53q-75 16 -151 16q-256 0 -456 -160q-198 -157 -257 -401h-223v-54h212q-10 -60 -10 -119q0 -28 3 -61h-205v-54h211q39 -247 222 -419q183 -173 433 -197l8 53
q-230 21 -400 179q-169 158 -208 384h548z" />
    <glyph glyph-name="afii61352" unicode="&#x2116;" horiz-adv-x="2271" 
 />
    <glyph glyph-name="trademark" unicode="&#x2122;" horiz-adv-x="1497" 
 />
    <glyph glyph-name="partialdiff" unicode="&#x2202;" 
 />
    <glyph glyph-name="Delta" unicode="&#x2206;" horiz-adv-x="1081" 
 />
    <glyph glyph-name="product" unicode="&#x220f;" horiz-adv-x="1515" 
 />
    <glyph glyph-name="summation" unicode="&#x2211;" horiz-adv-x="1206" 
 />
    <glyph glyph-name="minus" unicode="&#x2212;" 
 />
    <glyph glyph-name="radical" unicode="&#x221a;" 
 />
    <glyph glyph-name="infinity" unicode="&#x221e;" 
 />
    <glyph glyph-name="integral" unicode="&#x222b;" horiz-adv-x="665" 
 />
    <glyph glyph-name="approxequal" unicode="&#x2248;" 
 />
    <glyph glyph-name="lessequal" unicode="&#x2264;" 
 />
    <glyph glyph-name="greaterequal" unicode="&#x2265;" 
 />
    <glyph glyph-name="uniF001" unicode="&#xf001;" horiz-adv-x="1073" 
 />
    <glyph glyph-name="uniF001" unicode="&#xfb01;" horiz-adv-x="1073" 
 />
    <glyph glyph-name="uniF002" unicode="&#xf002;" horiz-adv-x="1081" 
 />
    <glyph glyph-name="uniF002" unicode="&#xfb02;" horiz-adv-x="1081" 
 />
    </font>
</defs>
</svg>
