<?xml version="1.0" standalone="no"?>
<!DOCTYPE svg PUBLIC "-//W3C//DTD SVG 1.1//EN" "http://www.w3.org/Graphics/SVG/1.1/DTD/svg11.dtd" >
<svg xmlns="http://www.w3.org/2000/svg" xmlns:xlink="http://www.w3.org/1999/xlink" version="1.1">
<metadata>
Created by FontForge 20161003 at Thu Dec 29 21:55:32 2016
 By www-data
Copyright (c) 2000 by Matthieu Lonton. All rights reserved.
</metadata>
<defs>
<font id="Josephin" horiz-adv-x="556" >
  <font-face 
    font-family="Josephin"
    font-weight="400"
    font-stretch="normal"
    units-per-em="1000"
    panose-1="2 9 5 3 0 0 0 2 0 4"
    ascent="800"
    descent="-200"
    x-height="515"
    cap-height="698"
    bbox="-166 -250 1000 935"
    underline-thickness="102"
    underline-position="-358"
    unicode-range="U+0020-2122"
  />
<missing-glyph horiz-adv-x="500" 
d="M442 8v496h-384v-496h384zM50 512h400v-512h-400v512z" />
    <glyph glyph-name=".notdef" horiz-adv-x="500" 
d="M442 8v496h-384v-496h384zM50 512h400v-512h-400v512z" />
    <glyph glyph-name=".null" horiz-adv-x="0" 
 />
    <glyph glyph-name="nonmarkingreturn" horiz-adv-x="278" 
 />
    <glyph glyph-name="space" unicode=" " horiz-adv-x="278" 
 />
    <glyph glyph-name="exclam" unicode="!" horiz-adv-x="389" 
d="M137 205h114l21 493h-154zM125 0h140v140h-140v-140z" />
    <glyph glyph-name="quotedbl" unicode="&#x22;" horiz-adv-x="481" 
d="M271 448h122v250h-122v-250zM88 448h122v250h-122v-250z" />
    <glyph glyph-name="numbersign" unicode="#" 
d="M494 285h-81l17 128h93v80h-81l28 205h-88l-28 -205h-102l28 205h-89l-28 -205h-100v-80h88l-17 -128h-101v-80h90l-29 -205h88l30 205h102l-29 -205h88l29 205h92v80zM342 413l-17 -128h-102l17 128h102z" />
    <glyph glyph-name="dollar" unicode="$" 
d="M259 434q-25 13 -39 29q-16 16 -16 40q0 36 16 56q16 21 39 31v-156zM306 265q26 -12 42 -30q16 -19 16 -47q0 -27 -16 -46t-42 -30v153zM259 782v-74q-82 -8 -140 -58q-60 -50 -61 -153q0 -51 19 -85q19 -36 48 -58q30 -22 65 -38t69 -29v-187q-10 -2 -19 -2
q-84 1 -158 43l-13 -126q50 -12 88 -19q37 -8 91 -8q5 0 11 1v-79h47v82q89 10 146 60t58 147q0 54 -19 90t-50 59q-30 23 -65 39q-36 15 -70 27v185q4 1 8 1q75 -1 142 -30l13 115q-75 25 -163 25v72h-47z" />
    <glyph glyph-name="percent" unicode="%" horiz-adv-x="1000" 
d="M729 68q-38 1 -51 37q-14 33 -13 67q-1 35 13 69q13 34 51 35q40 -1 52 -35q10 -34 10 -69q0 -34 -10 -67q-12 -36 -52 -37zM245 -22h82l432 742h-82zM274 342q164 2 166 184q-2 181 -166 184q-166 -3 -168 -184q2 -182 168 -184zM274 422q-38 1 -51 37q-14 33 -13 67
q-1 35 13 69q13 34 51 35q40 -1 52 -35q10 -34 10 -69q0 -34 -10 -67q-12 -36 -52 -37zM729 -12q164 3 166 184q-2 181 -166 184q-166 -3 -168 -184q2 -181 168 -184z" />
    <glyph glyph-name="ampersand" unicode="&#x26;" horiz-adv-x="722" 
d="M279 307l155 -173q-23 -22 -54 -32q-32 -10 -68 -10q-49 0 -82 29q-35 28 -36 74q0 42 26 68q24 27 59 44zM310 439q-21 21 -42 46q-23 24 -24 53q0 39 25 57q24 17 55 17q32 0 54 -17q22 -18 23 -55q-1 -31 -32 -59q-29 -28 -59 -42zM516 227l-128 140q58 32 97 74
q37 41 38 111q-2 85 -63 122q-61 36 -138 36q-78 0 -142 -39q-68 -40 -70 -120q0 -58 29 -94q27 -37 68 -74q-81 -34 -115 -81q-33 -48 -32 -111q1 -98 73 -150q70 -53 176 -53q53 0 103 19q50 18 87 55l47 -62h172l-125 140q84 103 89 239h-122q-1 -41 -9 -81
q-10 -40 -35 -71z" />
    <glyph glyph-name="quotesingle" unicode="'" horiz-adv-x="278" 
d="M78 448h122v250h-122v-250z" />
    <glyph glyph-name="parenleft" unicode="(" horiz-adv-x="333" 
d="M199 756q-76 -100 -117 -205q-43 -106 -43 -243q2 -250 160 -448h127q-141 198 -145 448q0 137 41 243q39 105 104 205h-127z" />
    <glyph glyph-name="parenright" unicode=")" horiz-adv-x="333" 
d="M133 -140q158 198 161 448q0 137 -43 243q-42 105 -118 205h-126q65 -100 105 -205q39 -106 40 -243q-5 -250 -145 -448h126z" />
    <glyph glyph-name="asterisk" unicode="*" 
d="M484 506l-32 104l-133 -56l17 144h-114l16 -145l-133 57l-33 -104l137 -31l-98 -107l91 -66l76 124l71 -124l92 66l-96 107z" />
    <glyph glyph-name="plus" unicode="+" horiz-adv-x="600" 
d="M248 305h-202v-104h202v-201h104v201h202v104h-202v201h-104v-201z" />
    <glyph glyph-name="comma" unicode="," horiz-adv-x="278" 
d="M23 -110h118l91 250h-145z" />
    <glyph glyph-name="hyphenminus" unicode="-" horiz-adv-x="333" 
d="M298 214v110h-263v-110h263z" />
    <glyph glyph-name="period" unicode="." horiz-adv-x="278" 
d="M69 0h140v140h-140v-140z" />
    <glyph glyph-name="slash" unicode="/" horiz-adv-x="389" 
d="M21 -12h104l244 722h-104z" />
    <glyph glyph-name="zero" unicode="0" 
d="M277 92q-37 0 -58 28q-21 27 -31 67q-8 41 -11 84q-2 43 -2 76q0 36 2 80q3 43 11 84q10 42 31 68t58 27q39 -1 61 -27q21 -26 30 -68q10 -41 12 -84q1 -44 1 -80v-76q-2 -43 -12 -84q-9 -40 -30 -67q-22 -28 -62 -28zM277 -12q76 1 124 34t74 86q27 54 37 116
q9 62 9 123q0 62 -9 126q-10 64 -36 117t-74 87q-49 32 -125 33q-70 0 -116 -31q-47 -32 -75 -84q-27 -52 -39 -116q-12 -65 -12 -132q0 -55 8 -116q8 -62 33 -117t74 -89q48 -36 127 -37z" />
    <glyph glyph-name="one" unicode="1" horiz-adv-x="439" 
d="M290 698v-698h-140v698h140z" />
    <glyph glyph-name="two" unicode="2" 
d="M41 0v117q27 25 76 71q49 44 100 100q53 57 89 113t37 105q-1 48 -35 72q-20 13 -44 18v114q214 0 219 -204q-1 -55 -24 -108q-24 -53 -64 -103q-84 -101 -175 -185h147v-110h-326z" />
    <glyph glyph-name="three" unicode="3" 
d="M53 130q35 -10 70.5 -20t84.5 -12q23 0 49 6q24 6 47 17q23 12 37 32q14 18 14 44q-1 61 -43 86q-42 23 -111 23h-68v110h64q72 0 113 24q41 23 42 68q0 27 -9 45q-10 18 -27 28q-34 19 -84 19h-1v109q15 1 31 1q34 0 73 -6q40 -7 75 -27q36 -19 59 -54q22 -35 23 -92
q-1 -70 -37 -108q-37 -39 -93 -59v-2q67 -10 100 -55t33 -111q-1 -61 -24 -102q-25 -40 -65 -64q-20 -10 -41 -18q-22 -8 -45 -14q-47 -10 -92 -10q-98 0 -183 23z" />
    <glyph glyph-name="four" unicode="4" horiz-adv-x="483" 
d="M320 249v267h134v-516h-134v145h-301v113l153 258h125l-152 -267h175z" />
    <glyph glyph-name="five" unicode="5" 
d="M282 594h-61l-3 -149q24 6 64 7q38 0 78 -9q38 -10 72 -36q34 -25 55 -69q20 -44 20 -113q0 -100 -68 -167q-69 -68 -204 -70q-9 0 -17 1v109q58 0 102 29q46 28 47 94q-1 67 -50 95q-47 26 -110 26q-32 0 -62 -4q-31 -4 -63 -15l7 375h193v-104z" />
    <glyph glyph-name="six" unicode="6" 
d="M44 313q-2 117 36 217h131q-37 -65 -39 -146l2 -2q48 70 135 70q202 -5 204 -213q0 -114 -56 -182q-58 -68 -176 -69q-142 3 -191 102q-25 46 -35 104q-11 57 -11 119zM278 348q-26 -2 -42 -9t-30 -30q-22 -39 -22 -93q0 -51 23 -86q24 -37 74 -38q49 1 71 40
q21 37 21 85q0 53 -22 92q-22 38 -73 39z" />
    <glyph glyph-name="seven" unicode="7" 
d="M259 698h241v-116l-248 -582h-152l259 588h-100v110z" />
    <glyph glyph-name="eight" unicode="8" 
d="M163 362q-128 -59 -128 -173q1 -106 73 -153q69 -48 173 -48q106 0 172 49q67 49 68 154q1 119 -134 183v1q58 26 88 72q28 47 28 95q-2 88 -70 129q-68 39 -164 39t-158 -44q-63 -46 -64 -140q0 -55 32 -96q31 -42 84 -66v-2zM181 522q1 42 33 63q30 21 69 21
q41 -1 64 -24q22 -24 22 -64q-1 -33 -23 -61q-24 -28 -55 -40q-18 7 -36 17q-19 9 -36 21q-16 12 -27 29q-11 16 -11 38zM175 191q0 45 26 71q25 27 63 44q46 -13 81 -41t36 -80q-1 -44 -29 -68q-28 -25 -71 -25t-73 29q-32 26 -33 70z" />
    <glyph glyph-name="nine" unicode="9" 
d="M455 116q-63 -124 -229 -128v110q84 4 121 69q36 65 38 147l-2 2q-48 -71 -135 -70q-203 5 -204 213q0 116 57 183t175 68q73 -1 120 -27q47 -27 72 -73q47 -97 45 -225q1 -148 -58 -269zM352 390q21 38 21 92q0 51 -22 87q-23 36 -75 37q-48 -1 -70 -38q-22 -38 -22 -87
q0 -52 23 -90q23 -40 72 -41q32 1 46.5 11.5t26.5 28.5z" />
    <glyph glyph-name="colon" unicode=":" horiz-adv-x="278" 
d="M69 375h140v140h-140v-140zM69 0h140v140h-140v-140z" />
    <glyph glyph-name="semicolon" unicode=";" horiz-adv-x="278" 
d="M23 -110h118l91 250h-145zM69 375h140v140h-140v-140z" />
    <glyph glyph-name="less" unicode="&#x3c;" horiz-adv-x="600" 
d="M554 -8v102l-373 159l373 159v102l-508 -218v-86z" />
    <glyph glyph-name="equal" unicode="=" horiz-adv-x="600" 
d="M554 414h-508v-104h508v104zM554 196h-508v-104h508v104z" />
    <glyph glyph-name="greater" unicode="&#x3e;" horiz-adv-x="600" 
d="M46 94v-102l508 218v86l-508 218v-102l373 -159z" />
    <glyph glyph-name="question" unicode="?" horiz-adv-x="500" 
d="M61 566q73 38 154 40q45 0 80 -20q34 -22 35 -71q-1 -38 -22 -65q-22 -27 -52 -58q-28 -29 -49 -73q-23 -44 -24 -115h123q-3 49 23 88q24 38 58 73q35 35 62 75q26 40 27 91q-2 95 -70 138q-68 41 -158 41q-101 -1 -198 -33zM175 0h140v140h-140v-140z" />
    <glyph glyph-name="at" unicode="@" horiz-adv-x="800" 
d="M415 446q35 0 55 -22q19 -21 19 -58q0 -48 -31 -88q-31 -41 -80 -42q-35 0 -55 24q-20 23 -20 58q0 47 32 87q30 40 80 41zM631 143q-48 -38 -109 -51t-122 -12q-114 1 -185 77q-73 74 -74 192q1 110 79 189q77 78 204 80q46 0 91 -8q23 -4 44 -12q21 -9 39 -21
q39 -22 62 -62t23 -102q-1 -92 -37 -134q-36 -43 -76 -43q-16 0 -15 15q0 16 7 34l55 243h-84l-12 -48q-43 64 -116 64q-87 -2 -145 -70q-60 -69 -61 -171q1 -73 47 -118q44 -47 108 -47q32 0 57 16q26 14 44 36h2q2 -26 18 -38q14 -14 36 -14q27 0 68 16q42 15 83 47
q43 33 72 87q28 52 29 128q-3 154 -108 225q-103 69 -231 69q-171 -2 -277 -105q-109 -102 -110 -256q3 -180 117 -270q110 -91 246 -91q199 -2 316 155h-85z" />
    <glyph glyph-name="A" unicode="A" horiz-adv-x="722" 
d="M152 0h-145l274 698h158l274 -698h-155l-60 160h-191l40 110h112l-101 288h-2z" />
    <glyph glyph-name="B" unicode="B" horiz-adv-x="611" 
d="M81 416h197q48 -1 89 16q20 9 32 26q11 16 11 43q0 31 -11 49q-12 18 -32 26q-20 9 -43 11q-24 1 -49 1h-194v110h244q35 0 75 -5q38 -7 72 -26q35 -19 57 -54q20 -36 21 -94q-1 -62 -38 -103t-101 -53v-2q73 -7 116 -50t44 -109q0 -65 -25 -105t-64 -61q-38 -21 -80 -28
q-43 -8 -77 -8h-244v416zM221 110h66q26 0 51 4q25 5 46 15q46 20 47 78q0 34 -12 56q-12 21 -33 31q-21 12 -46 16q-26 2 -53 2h-66v-202z" />
    <glyph glyph-name="C" unicode="C" horiz-adv-x="715" 
d="M371 -9q-132 12 -216 84q-107 85 -108 262q8 354 354 373q262 0 272 -251h-126q-15 135 -149 141q-87 3 -146 -66q-60 -63 -59 -187q0 -109 63 -177q24 -24 49.5 -38.5t65.5 -28.5v-112z" />
    <glyph glyph-name="D" unicode="D" horiz-adv-x="722" 
d="M81 698h191q166 2 282 -70q57 -39 89 -106q32 -68 32 -173q0 -103 -32 -170q-32 -68 -89 -108q-56 -39 -128 -55q-61 -14 -127 -16v110q92 0 160 63q68 62 70 176q-2 115 -70 177t-160 62h-78v-477h-140v587z" />
    <glyph glyph-name="E" unicode="E" 
d="M81 416h389v-110h-249v-196h274v-110h-414v416zM81 589v109h412v-110z" />
    <glyph glyph-name="F" unicode="F" horiz-adv-x="500" 
d="M81 416h287v-110h-147v-306h-140v416zM81 589v109h388v-110z" />
    <glyph glyph-name="G" unicode="G" horiz-adv-x="722" 
d="M430 599q-106 0 -171 -71q-66 -71 -66 -181q0 -109 63 -177q62 -71 174 -72q57 0 92 10v292h134v-376q-112 -34 -226 -36q-172 0 -275 87q-107 85 -108 262q7 369 383 373v-111z" />
    <glyph glyph-name="H" unicode="H" horiz-adv-x="722" 
d="M300 306v110h201v282h140v-698h-140v306h-201zM81 698h140v-698h-140v698z" />
    <glyph glyph-name="I" unicode="I" horiz-adv-x="278" 
d="M69 0h140v698h-140v-698z" />
    <glyph glyph-name="J" unicode="J" horiz-adv-x="363" 
d="M64 -10v120q34 0 53 13t26 31q12 39 11 79v465h140v-532q0 -27 -9 -58q-10 -30 -32 -58q-22 -27 -59 -44t-91 -18z" />
    <glyph glyph-name="K" unicode="K" horiz-adv-x="667" 
d="M81 517h140v-119l297 351h172l-332 -380l299 -369h-183l-251 324h-2v-324h-140v517z" />
    <glyph glyph-name="L" unicode="L" horiz-adv-x="500" 
d="M81 0h411v110h-271v588h-140v-698z" />
    <glyph glyph-name="M" unicode="M" horiz-adv-x="944" 
d="M81 698h224l166 -529h2l166 529h224v-698h-134v576h-2l-188 -576h-134l-188 576l-2 -2v-274h-134v398z" />
    <glyph glyph-name="N" unicode="N" horiz-adv-x="722" 
d="M74 698h172l266 -522h2v207h134v-383h-171l-267 522h-2v-522h-134v698z" />
    <glyph glyph-name="O" unicode="O" horiz-adv-x="778" 
d="M47 351q0 -163 88 -261q86 -100 254 -102q167 2 255 103q86 99 87 260q0 162 -88 259q-88 98 -254 100q-167 -1 -254 -99q-88 -97 -88 -260zM193 351q0 97 47 171q46 76 149 78q104 -2 151 -78q45 -74 45 -171q0 -98 -44 -173q-22 -36 -60 -58t-92 -22q-105 2 -151 80
q-46 75 -45 173z" />
    <glyph glyph-name="P" unicode="P" 
d="M209 588h49q56 0 94 -24q18 -12 29 -33q10 -21 10 -52q-1 -59 -39 -82q-39 -23 -94 -22h-49v213zM69 0h140v265h59q116 -1 192 51q76 51 77 171q-2 124 -88 169q-85 43 -203 42h-177v-698z" />
    <glyph glyph-name="Q" unicode="Q" horiz-adv-x="778" 
d="M666 -10h-244q-15 -2 -33 -2q-168 2 -254 102q-88 98 -88 261t88 260q87 98 254 99q166 -2 254 -100q88 -97 88 -259q6 -177 -123 -253h170v-108h-112zM193 351q-1 -98 45 -173q46 -78 151 -80q54 0 92 22t60 58q44 75 44 173q0 97 -45 171q-47 76 -151 78
q-103 -2 -149 -78q-47 -74 -47 -171z" />
    <glyph glyph-name="R" unicode="R" horiz-adv-x="611" 
d="M209 400h46q27 0 54 4q26 3 47 13t35 29q12 20 12 51q0 32 -12 51q-14 18 -35 27t-47 12q-27 1 -54 1h-46v-188zM591 0h-156l-215 345h-151v353h151q58 0 116 -1q58 -3 106 -20q49 -16 78 -56q28 -39 29 -112q0 -62 -38 -107t-133 -64z" />
    <glyph glyph-name="S" unicode="S" 
d="M303 597q-7 3 -25 -1q-19 -4 -36 -15q-16 -10 -27 -30q-11 -19 -11 -48q0 -22 14 -37t35 -27q23 -12 50 -22q26 -11 55 -23q29 -11 56 -26q28 -16 49 -39q21 -22 35 -53q12 -32 12 -77q-2 -113 -77 -162t-184 -49v110q38 2 74 22q40 22 41 68q0 25 -12 43q-14 18 -35 30
q-46 24 -105 46q-29 12 -55 28q-27 15 -50 36q-21 22 -35 53t-14 73q2 116 77 166q72 47 167 47z" />
    <glyph glyph-name="T" unicode="T" 
d="M208 0h140v588h200v110h-540v-110h200v-588z" />
    <glyph glyph-name="U" unicode="U" horiz-adv-x="722" 
d="M76 698h140v-403q-1 -90 33 -142q34 -55 112 -55q80 0 113 55q32 52 32 142v110h140v-153q-4 -268 -285 -264q-281 -4 -285 264v446z" />
    <glyph glyph-name="V" unicode="V" horiz-adv-x="667" 
d="M250 0h172l235 698h-139l-177 -548h-2l-179 548h-150z" />
    <glyph glyph-name="W" unicode="W" horiz-adv-x="1000" 
d="M195 0h181l124 558h2l126 -558h180l182 698h-136l-131 -558h-2l-123 558h-190l-119 -558h-2l-130 558h-147z" />
    <glyph glyph-name="X" unicode="X" horiz-adv-x="667" 
d="M10 0h158l163 272l161 -272h165l-229 363l210 335h-150l-149 -249l-146 249h-162l208 -335z" />
    <glyph glyph-name="Y" unicode="Y" horiz-adv-x="667" 
d="M266 276l-255 422h164l165 -293l168 293h148l-250 -422v-486h-140v486z" />
    <glyph glyph-name="Z" unicode="Z" 
d="M36 114l328 474v110h149v-114l-331 -474h338v-110h-484v114z" />
    <glyph glyph-name="bracketleft" unicode="[" horiz-adv-x="333" 
d="M72 -140h224v98h-96v700h96v98h-224v-896z" />
    <glyph glyph-name="backslash" unicode="\" horiz-adv-x="389" 
d="M264 -12h104l-244 722h-104z" />
    <glyph glyph-name="bracketright" unicode="]" horiz-adv-x="333" 
d="M37 756v-98h96v-700h-96v-98h224v896h-224z" />
    <glyph glyph-name="asciicircum" unicode="^" horiz-adv-x="600" 
d="M170 313l130 280l130 -280h104l-187 385h-94l-187 -385h104z" />
    <glyph glyph-name="underscore" unicode="_" horiz-adv-x="500" 
d="M0 -75v-50h500v50h-500z" />
    <glyph glyph-name="grave" unicode="`" horiz-adv-x="278" 
d="M166 731h-137l137 -146h83z" />
    <glyph glyph-name="a" unicode="a" 
d="M343 405q-22 18 -63 23v99q216 -2 213 -217v-66q0 -85 -43.5 -138.5t-75 -71.5t-67.5 -31q-43 -15 -91 -15q-70 1 -123 40q-56 39 -57 113q0 58 26 94q24 36 62 53q40 19 85 25q46 5 88 5h74q0 62 -28 87zM164 149q0 -32 25 -47q23 -16 60 -16q62 1 94 46q29 45 28 106
h-81q-12 0 -24 -2q-26 -3 -49 -12t-37 -27q-16 -18 -16 -48z" />
    <glyph glyph-name="b" unicode="b" horiz-adv-x="611" 
d="M204 259q-1 -58 27 -110q14 -24 36 -40q22 -17 55 -17t56 17q22 16 34 40q13 26 19 55q4 29 4 55q0 56 -22 109q-12 25 -34 40t-55 15q-64 -2 -92 -55q-28 -51 -28 -109zM69 750h134v-301h2q52 77 154 78q117 -2 168 -80q49 -78 48 -188q1 -109 -48 -188
q-51 -81 -168 -83q-110 -7 -162 34q-128 90 -128 427v301z" />
    <glyph glyph-name="c" unicode="c" horiz-adv-x="489" 
d="M357 307q-17 114 -79 116q-43 2 -72.5 -43t-29.5 -120q0 -72 31.5 -115.5t84.5 -51.5v-105h-2q-126 1 -189 78q-65 75 -65 194q0 115 65 190q64 76 184 77q167 -1 190 -220h-118z" />
    <glyph glyph-name="d" unicode="d" horiz-adv-x="611" 
d="M176 259q-1 -56 24 -110q13 -24 35 -40q21 -17 54 -17q35 0 57 17q23 16 36 40q14 25 20 54q5 29 5 56q0 58 -27 109q-15 25 -37 40q-23 15 -56 15q-63 -2 -88 -55q-12 -24 -17 -53q-6 -29 -6 -56zM446 107q-45 -119 -194 -119q-117 2 -167 83q-50 79 -49 188
q-1 110 49 188t167 80q97 0 154 -72h2v295h134v-572q0 -54 65 -60v-118q-146 16 -161 107z" />
    <glyph glyph-name="e" unicode="e" 
d="M168 257q1 -103 41 -136q40 -35 102 -35v-98q-272 4 -275 267q0 115 60 193q60 77 179 79q141 -1 195 -87q51 -86 50 -224h-289v92h161q-2 51 -27 85q-26 35 -82 36q-55 -1 -85 -34q-30 -34 -30 -138z" />
    <glyph glyph-name="f" unicode="f" horiz-adv-x="322" 
d="M51 587q-1 81 44 127.5t140 47.5q-9 0 43 -1v-104q-50 0 -72.5 -23t-20.5 -55v-64h93v-98h-93v-417h-134v587z" />
    <glyph glyph-name="g" unicode="g" horiz-adv-x="611" 
d="M404 497q97 49 124 116l49 -123q-36 -58 -80 -79q45 -68 45 -214v-147q0 -25 -2 -51q-3 -26 -9 -50q-13 -49 -44 -87q-29 -38 -83 -60q-53 -23 -134 -24h-1v105q44 3 72 18q31 19 46 48q15 30 19 65q2 35 2 68h-2q-19 -34 -60 -57q-42 -25 -100 -25q-113 2 -161 79
q-50 74 -49 181q-1 98 52 181q52 83 166 86q82 3 150 -30zM290 104q32 0 55 13t36 35q27 45 27 111q0 68 -26 113q-28 46 -86 47q-67 -2 -93 -51q-28 -49 -27 -112q0 -56 29 -104q15 -23 36 -37q21 -15 49 -15z" />
    <glyph glyph-name="h" unicode="h" horiz-adv-x="611" 
d="M69 750h134v-305h2q54 80 162 82q91 -1 134 -57q41 -56 41 -145v-137h-134v87q0 25 -1 51t-10 47q-7 23 -25 37q-19 13 -51 13q-36 0 -58 -17t-36 -43q-13 -26 -18 -55q-6 -30 -6 -56v-252h-134v750z" />
    <glyph glyph-name="i" unicode="i" horiz-adv-x="278" 
d="M72 515h134v-515h-134v515z" />
    <glyph glyph-name="j" unicode="j" horiz-adv-x="278" 
d="M-10 -118q53 2 69 21q14 19 13 77v535h134v-553q0 -27 -5 -58q-6 -32 -22 -61q-16 -27 -46 -46q-31 -18 -82 -19q-37 0 -66 8z" />
    <glyph glyph-name="k" unicode="k" 
d="M72 516h134v-207h2l160 207h158l-192 -231l216 -285h-170l-172 250h-2v-250h-134v516z" />
    <glyph glyph-name="l" unicode="l" horiz-adv-x="278" 
d="M72 750h134v-572q0 -54 65 -60v-118q-198 21 -199 178v572z" />
    <glyph glyph-name="m" unicode="m" horiz-adv-x="889" 
d="M67 515h125v-72h2q33 47 74 66q41 18 79 18q108 1 152 -91q25 47 70 69q43 22 91 22q94 -1 130 -57q34 -56 33 -145v-325h-134v307q1 39 -9 76q-7 18 -22 29q-16 11 -46 11q-33 0 -52 -17q-21 -17 -31 -44q-10 -26 -13 -55q-4 -31 -4 -57v-250h-134v307q1 39 -9 76
q-7 18 -22 29q-16 11 -46 11q-33 0 -52 -17q-21 -17 -31 -44q-10 -26 -13 -55q-4 -31 -4 -56h-134v264z" />
    <glyph glyph-name="n" unicode="n" horiz-adv-x="611" 
d="M69 515h127v-70h2q64 83 169 82q91 -1 134 -57q41 -56 41 -145v-325h-134v275q0 25 -1 51t-10 47q-7 23 -25 37q-19 13 -51 13q-36 0 -58 -17t-36 -43q-13 -26 -18 -55q-6 -30 -6 -57h-134v264z" />
    <glyph glyph-name="o" unicode="o" horiz-adv-x="611" 
d="M36 254q0 -113 71 -188q70 -76 198 -78q130 2 200 78q70 75 70 188q-1 129 -77 201q-75 71 -193 72q-116 -1 -191 -72q-77 -72 -78 -201zM176 270q0 61 33 106q32 46 96 47q66 -1 99 -46q31 -45 31 -107q0 -32 -5 -63q-5 -32 -20 -58t-40 -41q-26 -16 -65 -16
q-38 0 -62 17q-25 15 -40 41q-14 26 -20 58q-3 15 -5 32q-2 15 -2 30z" />
    <glyph glyph-name="p" unicode="p" horiz-adv-x="611" 
d="M69 -210h134v269h2q36 -41 73 -56q36 -15 78 -15q120 2 171 83q49 79 48 188q1 110 -48 188q-51 78 -168 80q-117 -3 -160 -85h-2v73h-128v-725zM324 423q33 0 55 -15t34 -40q22 -53 22 -109q0 -26 -4 -55q-6 -29 -19 -55q-12 -24 -34 -40q-23 -17 -56 -17t-55 17
q-22 16 -36 40q-28 52 -27 110q0 58 28 109q28 53 92 55z" />
    <glyph glyph-name="q" unicode="q" horiz-adv-x="611" 
d="M407 256q1 58 -27 110q-14 24 -36 40q-22 17 -55 17t-56 -17q-22 -16 -34 -40q-13 -26 -19 -55q-4 -29 -4 -55q0 -56 22 -109q12 -25 34 -40t55 -15q64 2 92 55q28 51 28 109zM542 -211h-134v277h-2q-52 -77 -154 -78q-117 2 -168 80q-49 78 -48 188q-1 109 48 188
q51 81 168 83q110 7 162 -34q128 -90 128 -427v-277z" />
    <glyph glyph-name="r" unicode="r" horiz-adv-x="389" 
d="M72 0v16.5v34.5t0.5 43t0.5 43v34.5v16.5q-1 35 0.5 71t11 72t29 70.5t55.5 66.5q31 26 62 40t83 17v-126q-40 -1 -61 -22q-22 -21 -33 -55q-10 -32 -12 -68q-2 -35 -2 -65v-189h-134z" />
    <glyph glyph-name="s" unicode="s" horiz-adv-x="444" 
d="M238 426q-20 -1 -35 -8q-26 -13 -27 -46q1 -29 37 -41q17 -7 38 -13t42 -14q23 -7 44 -18q20 -12 36 -28q17 -17 27 -41q9 -25 9 -61q-2 -89 -66 -129q-64 -39 -150 -39v98q22 3 45 14q30 13 31 49q0 20 -9 33q-10 12 -27 19q-35 14 -80 26q-21 7 -42 17t-38 26t-26 40
q-11 23 -11 57q1 84 63 122q58 38 139 38v-101z" />
    <glyph glyph-name="t" unicode="t" horiz-adv-x="389" 
d="M113 417h-99v98h99v146h134v-146h119v-98h-119v-426q-133 16 -134 164v262z" />
    <glyph glyph-name="u" unicode="u" horiz-adv-x="611" 
d="M542 0h-127v70h-2q-63 -80 -169 -82q-91 1 -132 58q-43 56 -43 144v111h134v-61q0 -11 2 -23q0 -12 1 -25q2 -26 9 -49q9 -22 26 -36q18 -15 49 -15q37 0 61 19q23 17 35 43q14 26 18 55t4 54v252h134v-515z" />
    <glyph glyph-name="v" unicode="v" 
d="M203 0h151l190 515h-134l-124 -375h-2l-128 375h-144z" />
    <glyph glyph-name="w" unicode="w" horiz-adv-x="889" 
d="M185 0h153l110 393h2l112 -393h158l158 515h-128l-107 -381h-2l-112 381h-156l-104 -381h-2l-114 381h-142z" />
    <glyph glyph-name="x" unicode="x" 
d="M9 515h158l119 -168l21 29h143l-77 -106l174 -270h-160l-115 192l-170 -277h-147l231 355z" />
    <glyph glyph-name="y" unicode="y" 
d="M159 515h-148l197 -541q0 -41 -23 -66t-64 -26q-46 0 -69 9l-9 -99q47 -14 95 -14q52 0 88 20q34 19 56 51q23 32 39 73q16 40 31 82l193 511h-136l-124 -376h-2z" />
    <glyph glyph-name="z" unicode="z" horiz-adv-x="500" 
d="M47 411h250l-261 -302v-109h428v104h-265l256 301v110h-408v-104z" />
    <glyph glyph-name="braceleft" unicode="{" horiz-adv-x="333" 
d="M18 265q30 0 56 -20q25 -23 26 -80v-170q1 -68 46 -101q43 -34 102 -34h75v80h-45q-32 0 -41 20q-10 18 -9 53v166q0 41 -11 66q-11 24 -28 37t-36 19q-20 5 -37 6v2q36 2 73 27q17 13 28 37q11 23 11 57v173q-1 35 9 54q9 19 41 19h45v80h-75q-56 0 -101 -32
q-46 -33 -47 -103v-177q0 -25 -6 -43q-8 -18 -20 -29q-26 -22 -56 -21v-86z" />
    <glyph glyph-name="bar" unicode="|" horiz-adv-x="222" 
d="M59 750v-1000h104v1000h-104z" />
    <glyph glyph-name="braceright" unicode="}" horiz-adv-x="333" 
d="M315 351q-28 -1 -54 21q-27 20 -28 72v177q-1 70 -45 103q-44 32 -103 32h-75v-80h45q32 0 42 -19q8 -19 8 -54v-173q0 -34 13 -57q11 -24 28 -37t37 -19q19 -6 34 -8v-2q-35 0 -71 -25q-17 -13 -28 -37q-13 -25 -13 -66v-166q0 -35 -8 -53q-10 -20 -42 -20h-45v-80h75
q59 0 103 33t45 102v170q0 30 8 49t20 31q26 20 54 20v86z" />
    <glyph glyph-name="asciitilde" unicode="~" horiz-adv-x="600" 
d="M105 164q12 28 32 50q20 21 54 22q33 0 59 -10q25 -11 50 -25q26 -14 54 -23q28 -12 62 -12q39 1 68 29q29 26 47 59l-36 88q-16 -27 -36 -48q-20 -23 -47 -24q-27 0 -52 12q-26 11 -53 24q-23 14 -51 24t-66 10q-46 -1 -75 -28q-30 -27 -46 -60z" />
    <glyph glyph-name="Euro" 
d="M596 569q-74 34 -144 34q-75 0 -128 -41.5t-76 -112.5h293l-15 -61h-294q-4 -39 0 -78h276l-14 -61h-246q23 -70 76 -111q46 -35 108 -40v-110q-129 0 -218 68q-92 69 -119 193h-99l15 61h75q-3 40 0 78h-90l15 61h85q28 119 119.5 190t214.5 71q91 0 166 -37v-104z" />
    <glyph glyph-name="Euro" unicode="&#x20ac;" 
d="M596 569q-74 34 -144 34q-75 0 -128 -41.5t-76 -112.5h293l-15 -61h-294q-4 -39 0 -78h276l-14 -61h-246q23 -70 76 -111q46 -35 108 -40v-110q-129 0 -218 68q-92 69 -119 193h-99l15 61h75q-3 40 0 78h-90l15 61h85q28 119 119.5 190t214.5 71q91 0 166 -37v-104z" />
    <glyph glyph-name="nonbreakingspace" unicode="&#xa0;" horiz-adv-x="278" 
 />
    <glyph glyph-name="exclamdown" unicode="&#xa1;" horiz-adv-x="389" 
d="M117 -183h154l-22 493h-111zM123 375h140v140h-140v-140z" />
    <glyph glyph-name="cent" unicode="&#xa2;" 
d="M343 423q-54 -7 -85 -50q-32 -44 -32 -113t32 -115zM365 -14q-62 2 -95 10l-27 -86h-58l32 104q-131 71 -131 246q0 115 65 190q64 76 184 77q22 0 40 -2l26 83h58l-28 -91q167 -2 190 -221h-118q-6 117 -102 124l-97 -315q26 -13 61 -13v-106z" />
    <glyph glyph-name="sterling" unicode="&#xa3;" 
d="M54 0h451v104h-223v219h147v80h-147v67q0 53 31 91q30 38 95 39q30 0 53 -5q24 -5 44 -12l7 110q-51 17 -130 17q-102 -1 -169 -61q-70 -60 -71 -162v-84h-76v-80h76v-219h-88v-104z" />
    <glyph glyph-name="currency" unicode="&#xa4;" 
d="M479 611l-58 -58q-66 46 -143 46t-143 -46l-58 58l-59 -59l58 -58q-46 -66 -46 -143q0 -75 46 -143l-58 -58l59 -59l58 58q66 -46 143 -46t143 46l58 -58l59 59l-58 58q46 68 46 144q0 77 -46 142l58 58zM140 351q1 62 41 102q39 41 97 42q59 -1 98 -42q39 -40 40 -102
q-1 -60 -40 -101q-39 -42 -98 -43q-58 1 -97 43q-40 41 -41 101z" />
    <glyph glyph-name="yen" unicode="&#xa5;" 
d="M567 698h-131l-154 -308l-151 308h-141l174 -329h-100v-80h139l8 -13v-49h-147v-80h147v-147h134v147h147v80h-147v49l7 13h140v80h-98z" />
    <glyph glyph-name="brokenbar" unicode="&#xa6;" horiz-adv-x="222" 
d="M59 675v-350h104v350h-104zM59 175v-350h104v350h-104z" />
    <glyph glyph-name="section" unicode="&#xa7;" 
d="M170 309q0 25 12 45q10 20 24 29q32 -13 64 -24q31 -10 57 -22q27 -12 44 -28q16 -16 16 -43q-1 -47 -36 -75q-19 12 -48 24q-30 10 -61 23q-29 13 -50 31q-22 16 -22 40zM440 581l11 109q-79 19 -160 20q-82 0 -147 -41q-69 -42 -71 -130q0 -40 19 -68q18 -28 51 -51
q-76 -42 -77 -135q1 -63 47 -97q21 -17 47 -29q25 -13 52 -24q58 -19 100 -39q21 -10 33 -25t12 -34q-1 -38 -29 -54q-29 -15 -72 -15q-88 2 -168 39l-9 -114q91 -27 185 -29q85 0 152 47q67 45 69 134q-1 73 -68 114q73 44 74 128q-1 68 -45 103q-43 35 -101 53
q-56 18 -99 38q-21 10 -33 25q-12 13 -12 32q1 40 30 55q27 13 66 13q75 0 143 -25z" />
    <glyph glyph-name="dieresis" unicode="&#xa8;" horiz-adv-x="278" 
d="M184 725v-116h116v116h-116zM94 609v116h-116v-116h116z" />
    <glyph glyph-name="copyright" unicode="&#xa9;" horiz-adv-x="800" 
d="M657 349q-1 -126 -74 -202q-73 -78 -183 -79q-110 1 -182 79q-74 76 -75 202q1 127 75 204q72 76 182 77q110 -1 183 -77q73 -77 74 -204zM506 291q-3 -35 -28 -53q-26 -19 -64 -19q-48 0 -76 40q-30 37 -30 94q0 59 28 96q26 35 76 36q36 0 62 -16q25 -18 32 -54h80
q-12 74 -58 112q-47 38 -116 38q-95 -1 -148 -60q-54 -59 -54 -153q0 -92 56 -151q54 -61 148 -62q66 0 115 40q48 38 60 112h-83zM39 349q2 -152 107 -254q102 -105 254 -107q154 2 256 107q103 102 105 254q-2 154 -105 256q-102 103 -256 105q-152 -2 -254 -105
q-105 -102 -107 -256z" />
    <glyph glyph-name="ordfeminine" unicode="&#xaa;" horiz-adv-x="361" 
d="M333 392q-5 84 -5 182q1 139 -144 136q-66 0 -120 -25v-66q48 30 105 31q35 0 54 -12q19 -14 19 -54h-37q-29 0 -60 -2q-31 -4 -57 -16t-42 -34q-18 -22 -18 -60q0 -24 12 -40q11 -18 29 -28q38 -20 81 -20q31 0 57 11q25 11 37 39h2l3 -42h84zM114 477q0 21 11 32
q10 11 25 15q15 5 32 6h31h30q0 -35 -19 -60q-20 -26 -58 -26q-16 0 -33 7q-19 7 -19 26z" />
    <glyph glyph-name="guillemotleft" unicode="&#xab;" 
d="M272 269l118 -205h126l-110 205l110 205h-126zM49 269l118 -205h126l-110 205l110 205h-126z" />
    <glyph glyph-name="logicalnot" unicode="&#xac;" horiz-adv-x="600" 
d="M450 108h104v306h-508v-104h404v-202z" />
    <glyph glyph-name="hyphen" unicode="&#xad;" horiz-adv-x="333" 
d="M298 214v110h-263v-110h263z" />
    <glyph glyph-name="registered" unicode="&#xae;" horiz-adv-x="800" 
d="M39 349q2 154 107 256q102 103 254 105q154 -2 256 -105q103 -102 105 -256q-2 -152 -105 -254q-102 -105 -256 -107q-152 2 -254 107q-105 102 -107 254zM143 349q1 -126 75 -202q72 -78 182 -79q110 1 183 79q73 76 74 202q-1 127 -74 204q-73 76 -183 77
q-110 -1 -182 -77q-74 -77 -75 -204zM255 551h151q77 0 119 -26q41 -27 41 -94q-1 -53 -29 -78q-29 -25 -77 -29l106 -174h-96l-106 170h-23v-170h-86v401zM411 386q32 -1 50 10q19 10 19 43q-1 31 -26 39q-24 7 -52 7h-61v-99h70z" />
    <glyph glyph-name="macron" unicode="&#xaf;" horiz-adv-x="278" 
d="M283 618v80h-288v-80h288z" />
    <glyph glyph-name="degree" unicode="&#xb0;" horiz-adv-x="400" 
d="M200 637q40 -1 64 -24q23 -24 24 -64q-1 -40 -24 -63q-24 -25 -64 -25t-63 25q-25 23 -25 63t25 64q23 23 63 24zM200 710q-68 -1 -113 -47q-47 -45 -48 -114q0 -70 46 -115q45 -46 115 -46q70 1 115 47q45 45 46 114q-1 69 -47 114q-45 46 -114 47z" />
    <glyph glyph-name="plusminus" unicode="&#xb1;" horiz-adv-x="600" 
d="M248 374h-202v-104h202v-133h104v133h202v104h-202v132h-104v-132zM46 0h508v104h-508v-104z" />
    <glyph glyph-name="twosuperior" unicode="&#xb2;" horiz-adv-x="361" 
d="M332 282v86h-171v2q49 23 108 86q27 31 44 63t17 62q-1 70 -44 100q-44 29 -110 29q-72 0 -135 -33l7 -87q47 34 105 34q61 -1 61 -52q0 -22 -22 -54q-22 -34 -54 -68q-31 -32 -61 -56q-31 -23 -47 -30v-82h302z" />
    <glyph glyph-name="threesuperior" unicode="&#xb3;" horiz-adv-x="361" 
d="M46 604q26 15 55 21q29 5 54 5q28 0 46 -9q17 -10 18 -37q-1 -25 -24 -36q-24 -12 -47 -12q-36 0 -58 1v-84q21 3 56 3q30 0 52 -9q20 -12 21 -40q-1 -25 -25 -37q-25 -14 -55 -14q-50 0 -108 20l-5 -83q68 -17 126 -17q65 0 123 29q27 15 44 40q16 24 16 59q0 38 -22 66
q-23 26 -67 30v2q83 23 83 105q0 30 -15 51q-15 19 -40 31q-52 21 -104 21q-61 0 -129 -24z" />
    <glyph glyph-name="acute" unicode="&#xb4;" horiz-adv-x="278" 
d="M29 585h83l137 146h-137z" />
    <glyph glyph-name="mu" unicode="&#xb5;" horiz-adv-x="611" 
d="M69 -210h134v232h2q23 -23 48 -28q25 -6 49 -6q40 1 70 28q30 26 41 54h2v-70h127v515h-134v-252q0 -25 -4 -54t-18 -55q-12 -26 -35 -43q-24 -19 -61 -19q-31 0 -49 15q-17 14 -26 36q-7 23 -9 49q-1 13 -1 25q-2 12 -2 23v275h-134v-725z" />
    <glyph glyph-name="paragraph" unicode="&#xb6;" horiz-adv-x="620" 
d="M221 -124h104v742h106v-742h104v822h-293q-106 1 -171 -38q-68 -40 -69 -144q2 -171 219 -175v-465z" />
    <glyph glyph-name="periodcentered" unicode="&#xb7;" horiz-adv-x="278" 
d="M139 207q35 0 57 22q20 22 20 55q0 35 -20 56q-22 20 -57 21q-35 -1 -55 -21q-22 -21 -22 -56q0 -33 22 -55q20 -22 55 -22z" />
    <glyph glyph-name="periodcentered" unicode="&#x2219;" horiz-adv-x="278" 
d="M139 207q35 0 57 22q20 22 20 55q0 35 -20 56q-22 20 -57 21q-35 -1 -55 -21q-22 -21 -22 -56q0 -33 22 -55q20 -22 55 -22z" />
    <glyph glyph-name="cedilla" unicode="&#xb8;" horiz-adv-x="278" 
d="M75 -201q19 -9 47 -14q28 -6 69 -7q47 0 85 24q39 24 40 80q-1 36 -25 53q-24 16 -55 16q-23 0 -41 -6l-2 2l46 53h-63l-59 -74l15 -26q18 9 42 9q19 1 31 -8q13 -9 13 -28q-1 -19 -17 -27t-36 -8q-21 1 -37 6q-18 5 -33 9z" />
    <glyph glyph-name="onesuperior" unicode="&#xb9;" horiz-adv-x="361" 
d="M141 282l1 422h103v-422h-104z" />
    <glyph glyph-name="ordmasculine" unicode="&#xba;" horiz-adv-x="397" 
d="M200 710q-73 0 -125 -43q-53 -43 -54 -119q1 -77 53 -120q50 -44 125 -44q76 0 126 44q50 43 51 120q-1 76 -52 119q-50 43 -124 43zM202 650q43 -1 60 -32q16 -30 16 -70q0 -41 -14 -71q-17 -32 -64 -33q-47 0 -64 31q-18 30 -17 73q0 42 19 72q19 29 64 30z" />
    <glyph glyph-name="guillemotright" unicode="&#xbb;" 
d="M284 269l-118 205h-126l110 -205l-110 -205h126zM507 269l-118 205h-126l110 -205l-110 -205h126z" />
    <glyph glyph-name="onequarter" unicode="&#xbc;" horiz-adv-x="834" 
d="M164 -22h82l417 742h-82zM20 604l52 -61l77 59v-320h104v422h-94zM540 159l114 171h2v-171h-116zM455 79h201v-79h104v79h48v80h-48v263h-125l-180 -258v-85z" />
    <glyph glyph-name="onehalf" unicode="&#xbd;" horiz-adv-x="834" 
d="M134 -22h82l417 742h-82zM10 603l52 -61l77 60v-320h104v422h-94zM499 0h302v86h-171v2q49 23 108 86q27 31 44 63t17 62q-1 70 -44 100q-44 29 -110 29q-72 0 -135 -33l7 -87q47 34 105 34q61 -1 61 -52q0 -22 -22 -54q-22 -34 -54 -68q-31 -32 -61 -56q-31 -23 -47 -30
v-82z" />
    <glyph glyph-name="threequarters" unicode="&#xbe;" horiz-adv-x="834" 
d="M176 -22h82l417 742h-82zM34 604q26 15 55 21q29 5 54 5q28 0 49 -9q20 -10 21 -37q-1 -25 -25 -36q-24 -12 -52 -12q-36 0 -58 1v-84q21 3 56 3q30 0 54 -9q24 -12 25 -40q-1 -25 -25 -37q-25 -14 -55 -14q-58 0 -114 20l-5 -83q68 -17 126 -17q65 0 123 29q27 15 44 40
q16 24 16 59q0 38 -22 66q-23 26 -67 30v2q83 23 83 105q0 30 -15 51q-15 19 -40 31q-52 21 -104 21q-61 0 -129 -24zM668 159h-114l112 171h2v-171zM772 79h48v80h-48v263h-125l-180 -258v-85h201v-79h104v79z" />
    <glyph glyph-name="questiondown" unicode="&#xbf;" horiz-adv-x="500" 
d="M439 -51q-72 -39 -154 -40q-41 0 -77 20q-16 11 -27 29q-11 17 -11 42q1 40 24 67q22 28 50 57q29 30 51 74q21 44 22 113h-123q3 -47 -21 -86q-24 -38 -59 -74q-34 -35 -61 -75q-28 -40 -29 -92q1 -95 71 -137q67 -42 157 -42q50 0 101 7q52 7 97 26zM324 515h-140v-140
h140v140z" />
    <glyph glyph-name="Agrave" unicode="&#xc0;" horiz-adv-x="722" 
d="M152 0h-145l274 698h158l274 -698h-155l-60 160h-191l40 110h112l-101 288h-2zM366 889h-137l137 -146h83z" />
    <glyph glyph-name="Aacute" unicode="&#xc1;" horiz-adv-x="722" 
d="M152 0h-145l274 698h158l274 -698h-155l-60 160h-191l40 110h112l-101 288h-2zM287 743h83l137 146h-137z" />
    <glyph glyph-name="Acircumflex" unicode="&#xc2;" horiz-adv-x="722" 
d="M152 0h-145l274 698h158l274 -698h-155l-60 160h-191l40 110h112l-101 288h-2zM319 889l-110 -146h89l70 86l68 -86h89l-105 146h-101z" />
    <glyph glyph-name="Atilde" unicode="&#xc3;" horiz-adv-x="722" 
d="M152 0h-145l274 698h158l274 -698h-155l-60 160h-191l40 110h112l-101 288h-2zM243 761q0 16 12 30q12 13 37 14q30 -1 68 -19q19 -7 40 -12q19 -6 46 -6q47 1 73 36q24 34 24 85h-54q0 -47 -44 -49q-19 0 -36 8q-18 6 -37 14t-39 14q-19 6 -42 6q-44 -1 -72 -37
q-29 -37 -30 -84h54z" />
    <glyph glyph-name="Adieresis" unicode="&#xc4;" horiz-adv-x="722" 
d="M152 0h-145l274 698h158l274 -698h-155l-60 160h-191l40 110h112l-101 288h-2zM412 883v-116h116v116h-116zM322 767v116h-116v-116h116z" />
    <glyph glyph-name="Aring" unicode="&#xc5;" horiz-adv-x="722" 
d="M152 0h-145l274 698h158l274 -698h-155l-60 160h-191l40 110h112l-101 288h-2zM262 828q1 -44 33 -74q30 -32 74 -32q46 0 76 32q29 30 30 74q-1 45 -30 76q-30 30 -76 31q-44 -1 -74 -31q-32 -31 -33 -76zM316 828q0 23 16 39q14 14 37 14t38 -14q14 -16 14 -39
q0 -22 -14 -36q-15 -16 -38 -16t-37 16q-16 14 -16 36z" />
    <glyph glyph-name="AE" unicode="&#xc6;" horiz-adv-x="944" 
d="M503 270h-198l173 324h2zM9 0h150l86 160h268l12 -160l146 -1l223 1v110h-233l-16 196h223v110h-235l-14 172h271v110h-281h-144h-74z" />
    <glyph glyph-name="Ccedilla" unicode="&#xc7;" horiz-adv-x="611" 
d="M416 -9l-36 -44l2 -2q18 6 41 6q31 0 55 -16q24 -17 25 -53q-1 -56 -40 -80q-38 -24 -85 -24q-41 1 -69 7q-28 5 -47 14l20 54q15 -4 33 -9q16 -5 37 -6q20 0 36 8t17 27q0 19 -13 28q-12 9 -31 8q-24 0 -42 -9l-15 26l53 65h59zM371 -9q-132 12 -216 84
q-107 85 -108 262q8 354 354 373q262 0 272 -251h-126q-15 135 -149 141q-87 3 -146 -66q-60 -63 -59 -187q0 -109 63 -177q24 -24 49.5 -38.5t65.5 -28.5v-112z" />
    <glyph glyph-name="Egrave" unicode="&#xc8;" 
d="M81 416h389v-110h-249v-196h274v-110h-414v416zM81 589v109h412v-110zM279 889h-137l137 -146h83z" />
    <glyph glyph-name="Eacute" unicode="&#xc9;" 
d="M81 416h389v-110h-249v-196h274v-110h-414v416zM81 589v109h412v-110zM200 743h83l137 146h-137z" />
    <glyph glyph-name="Ecircumflex" unicode="&#xca;" 
d="M81 416h389v-110h-249v-196h274v-110h-414v416zM81 589v109h412v-110zM232 889l-110 -146h89l70 86l68 -86h89l-105 146h-101z" />
    <glyph glyph-name="Edieresis" unicode="&#xcb;" 
d="M81 416h389v-110h-249v-196h274v-110h-414v416zM81 589v109h412v-110zM325 883v-116h116v116h-116zM235 767v116h-116v-116h116z" />
    <glyph glyph-name="Igrave" unicode="&#xcc;" horiz-adv-x="278" 
d="M69 0h140v698h-140v-698zM143 889h-137l137 -146h83z" />
    <glyph glyph-name="Iacute" unicode="&#xcd;" horiz-adv-x="278" 
d="M69 0h140v698h-140v-698zM56 743h83l137 146h-137z" />
    <glyph glyph-name="Icircumflex" unicode="&#xce;" horiz-adv-x="278" 
d="M69 0h140v698h-140v-698zM91 889l-110 -146h89l70 86l68 -86h89l-105 146h-101z" />
    <glyph glyph-name="Idieresis" unicode="&#xcf;" horiz-adv-x="278" 
d="M69 0h140v698h-140v-698zM184 883v-116h116v116h-116zM94 767v116h-116v-116h116z" />
    <glyph glyph-name="Eth" unicode="&#xd0;" horiz-adv-x="722" 
d="M221 111h-140v225h-64v86h64v276h191q166 2 282 -70q57 -39 89 -106q32 -68 32 -173q0 -103 -32 -170q-32 -68 -89 -108q-56 -39 -128 -55q-60 -14 -127 -16v110q92 0 160 63q68 62 70 176q-2 115 -70 177t-160 62h-78v-166h146v-86h-146v-225z" />
    <glyph glyph-name="Ntilde" unicode="&#xd1;" horiz-adv-x="722" 
d="M74 698h172l266 -522h2v207h134v-383h-171l-267 522h-2v-522h-134v698zM242 761q0 16 12 30q12 13 37 14q30 -1 68 -19q19 -7 40 -12q19 -6 46 -6q47 1 73 36q24 34 24 85h-54q0 -47 -44 -49q-19 0 -36 8q-18 6 -37 14t-39 14q-19 6 -42 6q-44 -1 -72 -37
q-29 -37 -30 -84h54z" />
    <glyph glyph-name="Ograve" unicode="&#xd2;" horiz-adv-x="778" 
d="M47 351q0 -163 88 -261q86 -100 254 -102q167 2 255 103q86 99 87 260q0 162 -88 259q-88 98 -254 100q-167 -1 -254 -99q-88 -97 -88 -260zM193 351q0 97 47 171q46 76 149 78q104 -2 151 -78q45 -74 45 -171q0 -98 -44 -173q-22 -36 -60 -58t-92 -22q-105 2 -151 80
q-46 75 -45 173zM395 889h-137l137 -146h83z" />
    <glyph glyph-name="Oacute" unicode="&#xd3;" horiz-adv-x="778" 
d="M47 351q0 -163 88 -261q86 -100 254 -102q167 2 255 103q86 99 87 260q0 162 -88 259q-88 98 -254 100q-167 -1 -254 -99q-88 -97 -88 -260zM193 351q0 97 47 171q46 76 149 78q104 -2 151 -78q45 -74 45 -171q0 -98 -44 -173q-22 -36 -60 -58t-92 -22q-105 2 -151 80
q-46 75 -45 173zM315 743h83l137 146h-137z" />
    <glyph glyph-name="Ocircumflex" unicode="&#xd4;" horiz-adv-x="778" 
d="M47 351q0 -163 88 -261q86 -100 254 -102q167 2 255 103q86 99 87 260q0 162 -88 259q-88 98 -254 100q-167 -1 -254 -99q-88 -97 -88 -260zM193 351q0 97 47 171q46 76 149 78q104 -2 151 -78q45 -74 45 -171q0 -98 -44 -173q-22 -36 -60 -58t-92 -22q-105 2 -151 80
q-46 75 -45 173zM347 889l-110 -146h89l70 86l68 -86h89l-105 146h-101z" />
    <glyph glyph-name="Otilde" unicode="&#xd5;" horiz-adv-x="778" 
d="M47 351q0 -163 88 -261q86 -100 254 -102q167 2 255 103q86 99 87 260q0 162 -88 259q-88 98 -254 100q-167 -1 -254 -99q-88 -97 -88 -260zM193 351q0 97 47 171q46 76 149 78q104 -2 151 -78q45 -74 45 -171q0 -98 -44 -173q-22 -36 -60 -58t-92 -22q-105 2 -151 80
q-46 75 -45 173zM271 761q0 16 12 30q12 13 37 14q30 -1 68 -19q19 -7 40 -12q19 -6 46 -6q47 1 73 36q24 34 24 85h-54q0 -47 -44 -49q-19 0 -36 8q-18 6 -37 14t-39 14q-19 6 -42 6q-44 -1 -72 -37q-29 -37 -30 -84h54z" />
    <glyph glyph-name="Odieresis" unicode="&#xd6;" horiz-adv-x="778" 
d="M47 351q0 -163 88 -261q86 -100 254 -102q167 2 255 103q86 99 87 260q0 162 -88 259q-88 98 -254 100q-167 -1 -254 -99q-88 -97 -88 -260zM193 351q0 97 47 171q46 76 149 78q104 -2 151 -78q45 -74 45 -171q0 -98 -44 -173q-22 -36 -60 -58t-92 -22q-105 2 -151 80
q-46 75 -45 173zM440 883v-116h116v116h-116zM350 767v116h-116v-116h116z" />
    <glyph glyph-name="multiply" unicode="&#xd7;" horiz-adv-x="600" 
d="M228 253l-162 -162l72 -72l162 163l162 -163l72 72l-163 162l163 162l-72 72l-162 -162l-162 162l-72 -72z" />
    <glyph glyph-name="Oslash" unicode="&#xd8;" horiz-adv-x="778" 
d="M228 194q-35 70 -35 157q0 97 47 171q46 76 149 78q75 -1 120 -44zM546 509q39 -69 39 -158q0 -98 -44 -173q-22 -36 -60 -58t-92 -22q-80 1 -125 48zM641 727l-54 -70q-79 52 -198 53q-167 -1 -254 -99q-88 -97 -88 -260q0 -171 95 -268l-59 -76l45 -36l57 74
q80 -56 204 -57q167 2 255 103q86 99 87 260q-1 170 -99 269l54 70z" />
    <glyph glyph-name="Ugrave" unicode="&#xd9;" horiz-adv-x="722" 
d="M76 698h140v-403q-1 -90 33 -142q34 -55 112 -55q80 0 113 55q32 52 32 142v110h140v-153q-4 -268 -285 -264q-281 -4 -285 264v446zM365 889h-137l137 -146h83z" />
    <glyph glyph-name="Uacute" unicode="&#xda;" horiz-adv-x="722" 
d="M76 698h140v-403q-1 -90 33 -142q34 -55 112 -55q80 0 113 55q32 52 32 142v110h140v-153q-4 -268 -285 -264q-281 -4 -285 264v446zM286 743h83l137 146h-137z" />
    <glyph glyph-name="Ucircumflex" unicode="&#xdb;" horiz-adv-x="722" 
d="M76 698h140v-403q-1 -90 33 -142q34 -55 112 -55q80 0 113 55q32 52 32 142v110h140v-153q-4 -268 -285 -264q-281 -4 -285 264v446zM317 889l-110 -146h89l70 86l68 -86h89l-105 146h-101z" />
    <glyph glyph-name="Udieresis" unicode="&#xdc;" horiz-adv-x="722" 
d="M76 698h140v-403q-1 -90 33 -142q34 -55 112 -55q80 0 113 55q32 52 32 142v110h140v-153q-4 -268 -285 -264q-281 -4 -285 264v446zM410 883v-116h116v116h-116zM320 767v116h-116v-116h116z" />
    <glyph glyph-name="Yacute" unicode="&#xdd;" horiz-adv-x="667" 
d="M266 276l-255 422h164l165 -293l168 293h148l-250 -422v-486h-140v486zM260 743h83l137 146h-137z" />
    <glyph glyph-name="Thorn" unicode="&#xde;" 
d="M209 0v149h59q116 -1 192 50t77 171q-2 124 -88 169q-85 44 -203 43h-37v116h-140v-698h140zM209 472h49q56 0 94 -24q18 -12 29 -33q10 -21 10 -52q-1 -59 -39 -82q-39 -23 -94 -22h-49v213z" />
    <glyph glyph-name="germandbls" unicode="&#xdf;" horiz-adv-x="611" 
d="M206 0v516q0 54 26 97q26 44 84 45q46 -1 68 -30q21 -30 21 -73q-3 -110 -121 -109v-104q65 1 111 -22q45 -24 46 -91q0 -42 -11 -67q-11 -27 -28 -40t-34 -18q-18 -6 -34 -6q-45 0 -70 11l-4 -104q33 -9 87 -11q104 1 169 60q64 58 65 161q-1 72 -46 123q-46 51 -123 61
v2q133 38 133 177q-2 92 -71 138q-68 46 -156 46q-123 -1 -184 -71q-62 -70 -62 -186v-505h134z" />
    <glyph glyph-name="agrave" unicode="&#xe0;" 
d="M343 405q-22 18 -63 23v99q216 -2 213 -217v-66q0 -85 -43.5 -138.5t-75 -71.5t-67.5 -31q-43 -15 -91 -15q-70 1 -123 40q-56 39 -57 113q0 58 26 94q24 36 62 53q40 19 85 25q46 5 88 5h74q0 62 -28 87zM164 149q0 -32 25 -47q23 -16 60 -16q62 1 94 46q29 45 28 106
h-81q-12 0 -24 -2q-26 -3 -49 -12t-37 -27q-16 -18 -16 -48zM263 731h-137l137 -146h83z" />
    <glyph glyph-name="aacute" unicode="&#xe1;" 
d="M343 405q-22 18 -63 23v99q216 -2 213 -217v-66q0 -85 -43.5 -138.5t-75 -71.5t-67.5 -31q-43 -15 -91 -15q-70 1 -123 40q-56 39 -57 113q0 58 26 94q24 36 62 53q40 19 85 25q46 5 88 5h74q0 62 -28 87zM164 149q0 -32 25 -47q23 -16 60 -16q62 1 94 46q29 45 28 106
h-81q-12 0 -24 -2q-26 -3 -49 -12t-37 -27q-16 -18 -16 -48zM210 585h83l137 146h-137z" />
    <glyph glyph-name="acircumflex" unicode="&#xe2;" 
d="M343 405q-22 18 -63 23v99q216 -2 213 -217v-66q0 -85 -43.5 -138.5t-75 -71.5t-67.5 -31q-43 -15 -91 -15q-70 1 -123 40q-56 39 -57 113q0 58 26 94q24 36 62 53q40 19 85 25q46 5 88 5h74q0 62 -28 87zM164 149q0 -32 25 -47q23 -16 60 -16q62 1 94 46q29 45 28 106
h-81q-12 0 -24 -2q-26 -3 -49 -12t-37 -27q-16 -18 -16 -48zM233 731l-110 -146h89l70 86l68 -86h89l-105 146h-101z" />
    <glyph glyph-name="atilde" unicode="&#xe3;" 
d="M343 405q-22 18 -63 23v99q216 -2 213 -217v-66q0 -85 -43.5 -138.5t-75 -71.5t-67.5 -31q-43 -15 -91 -15q-70 1 -123 40q-56 39 -57 113q0 58 26 94q24 36 62 53q40 19 85 25q46 5 88 5h74q0 62 -28 87zM164 149q0 -32 25 -47q23 -16 60 -16q62 1 94 46q29 45 28 106
h-81q-12 0 -24 -2q-26 -3 -49 -12t-37 -27q-16 -18 -16 -48zM157 603q0 16 12 30q12 13 37 14q30 -1 68 -19q19 -7 40 -12q19 -6 46 -6q47 1 73 36q24 34 24 85h-54q0 -47 -44 -49q-19 0 -36 8q-18 6 -37 14t-39 14q-19 6 -42 6q-44 -1 -72 -37q-29 -37 -30 -84h54z" />
    <glyph glyph-name="adieresis" unicode="&#xe4;" 
d="M343 405q-22 18 -63 23v99q216 -2 213 -217v-66q0 -85 -43.5 -138.5t-75 -71.5t-67.5 -31q-43 -15 -91 -15q-70 1 -123 40q-56 39 -57 113q0 58 26 94q24 36 62 53q40 19 85 25q46 5 88 5h74q0 62 -28 87zM164 149q0 -32 25 -47q23 -16 60 -16q62 1 94 46q29 45 28 106
h-81q-12 0 -24 -2q-26 -3 -49 -12t-37 -27q-16 -18 -16 -48zM326 725v-116h116v116h-116zM236 609v116h-116v-116h116z" />
    <glyph glyph-name="aring" unicode="&#xe5;" 
d="M343 405q-22 18 -63 23v99q216 -2 213 -217v-66q0 -85 -43.5 -138.5t-75 -71.5t-67.5 -31q-43 -15 -91 -15q-70 1 -123 40q-56 39 -57 113q0 58 26 94q24 36 62 53q40 19 85 25q46 5 88 5h74q0 62 -28 87zM164 149q0 -32 25 -47q23 -16 60 -16q62 1 94 46q29 45 28 106
h-81q-12 0 -24 -2q-26 -3 -49 -12t-37 -27q-16 -18 -16 -48zM177 685q1 -44 33 -74q30 -32 74 -32q46 0 76 32q29 30 30 74q-1 45 -30 76q-30 30 -76 31q-44 -1 -74 -31q-32 -31 -33 -76zM231 685q0 23 16 39q14 14 37 14t38 -14q14 -16 14 -39q0 -22 -14 -36
q-15 -16 -38 -16t-37 16q-16 14 -16 36z" />
    <glyph glyph-name="ae" unicode="&#xe6;" horiz-adv-x="889" 
d="M499 308q0 52 32 86q30 34 89 35q56 -1 81 -36q24 -36 24 -85h-226zM818 138q-37 -22 -79 -36q-43 -16 -92 -16q-63 0 -104 34q-43 33 -44 96h354q1 125 -45 216q-50 92 -185 95q-120 -1 -176 -65q-18 21 -37 35q-20 13 -41 19q-42 11 -97 11q-98 -1 -183 -39l4 -115
q71 55 159 57q67 0 94 -28q25 -28 25 -84h-77q-44 0 -89 -7q-46 -7 -84 -27q-38 -19 -61 -54q-24 -35 -24 -89q1 -83 62 -118q59 -35 135 -35q57 -1 109 23q26 12 48 30q21 16 35 40q38 -52 96 -72q57 -21 120 -21q106 0 177 41v109zM164 141q0 30 15 50q14 19 37 29
q23 11 49 15q13 2 25 3h23h58q3 -152 -131 -152q-36 0 -56 17q-20 15 -20 38z" />
    <glyph glyph-name="ccedilla" unicode="&#xe7;" horiz-adv-x="444" 
d="M200 -74l15 -26q18 9 42 9q19 1 31 -8q13 -9 13 -28q-1 -19 -17 -27t-36 -8q-21 1 -37 6q-18 5 -33 9l-20 -54q19 -9 47 -14q28 -6 69 -7q47 0 85 24q39 24 40 80q-1 36 -25 53q-24 16 -55 16q-23 0 -41 -6l-2 2l37 42q-18 -1 -30.5 -0.5t-30.5 2.5zM357 307
q-17 114 -79 116q-43 2 -72.5 -43t-29.5 -120q0 -72 31.5 -115.5t84.5 -51.5v-105q-128 1 -191 78q-65 75 -65 194q0 115 65 190q64 76 184 77q167 -1 190 -220h-118z" />
    <glyph glyph-name="egrave" unicode="&#xe8;" 
d="M168 257q1 -103 41 -136q40 -35 102 -35v-98q-272 4 -275 267q0 115 60 193q60 77 179 79q141 -1 195 -87q51 -86 50 -224h-289v92h161q-2 51 -27 85q-26 35 -82 36q-55 -1 -85 -34q-30 -34 -30 -138zM263 731h-137l137 -146h83z" />
    <glyph glyph-name="eacute" unicode="&#xe9;" 
d="M168 257q1 -103 41 -136q40 -35 102 -35v-98q-272 4 -275 267q0 115 60 193q60 77 179 79q141 -1 195 -87q51 -86 50 -224h-289v92h161q-2 51 -27 85q-26 35 -82 36q-55 -1 -85 -34q-30 -34 -30 -138zM210 585h83l137 146h-137z" />
    <glyph glyph-name="ecircumflex" unicode="&#xea;" 
d="M168 257q1 -103 41 -136q40 -35 102 -35v-98q-272 4 -275 267q0 115 60 193q60 77 179 79q141 -1 195 -87q51 -86 50 -224h-289v92h161q-2 51 -27 85q-26 35 -82 36q-55 -1 -85 -34q-30 -34 -30 -138zM233 731l-110 -146h89l70 86l68 -86h89l-105 146h-101z" />
    <glyph glyph-name="edieresis" unicode="&#xeb;" 
d="M168 257q1 -103 41 -136q40 -35 102 -35v-98q-272 4 -275 267q0 115 60 193q60 77 179 79q141 -1 195 -87q51 -86 50 -224h-289v92h161q-2 51 -27 85q-26 35 -82 36q-55 -1 -85 -34q-30 -34 -30 -138zM326 725v-116h116v116h-116zM236 609v116h-116v-116h116z" />
    <glyph glyph-name="igrave" unicode="&#xec;" horiz-adv-x="278" 
d="M206 0v515h-134v-515h134zM125 731h-137l137 -146h83z" />
    <glyph glyph-name="iacute" unicode="&#xed;" horiz-adv-x="278" 
d="M206 0v515h-134v-515h134zM65 585h83l137 146h-137z" />
    <glyph glyph-name="icircumflex" unicode="&#xee;" horiz-adv-x="278" 
d="M206 0v515h-134v-515h134zM91 731l-110 -146h89l70 86l68 -86h89l-105 146h-101z" />
    <glyph glyph-name="idieresis" unicode="&#xef;" horiz-adv-x="278" 
d="M206 0v515h-134v-515h134zM184 725v-116h116v116h-116zM94 609v116h-116v-116h116z" />
    <glyph glyph-name="eth" unicode="&#xf0;" horiz-adv-x="611" 
d="M307 411q34 0 58 -14q24 -15 38 -39q29 -51 29 -107q0 -63 -28 -109q-29 -49 -98 -50q-36 0 -60 16q-25 14 -40 37t-22 51q-8 28 -8 55q0 59 33 108q32 50 98 52zM145 594l51 -47l92 60q70 -52 106 -124h-2q-22 15 -51 24q-29 8 -72 8q-112 -2 -173 -78t-60 -183
q0 -113 71 -188q70 -76 198 -78q264 3 267 294q-5 246 -195 382l83 53l-51 47l-92 -59q-60 35 -127 59l-61 -68q45 -15 99 -48z" />
    <glyph glyph-name="ntilde" unicode="&#xf1;" horiz-adv-x="611" 
d="M69 515h127v-70h2q64 83 169 82q91 -1 134 -57q41 -56 41 -145v-325h-134v275q0 25 -1 51t-10 47q-7 23 -25 37q-19 13 -51 13q-36 0 -58 -17t-36 -43q-13 -26 -18 -55q-6 -30 -6 -57h-134v264zM185 603q0 16 12 30q12 13 37 14q30 -1 68 -19q19 -7 40 -12q19 -6 46 -6
q47 1 73 36q24 34 24 85h-54q0 -47 -44 -49q-19 0 -36 8q-18 6 -37 14t-39 14q-19 6 -42 6q-44 -1 -72 -37q-29 -37 -30 -84h54z" />
    <glyph glyph-name="ograve" unicode="&#xf2;" horiz-adv-x="611" 
d="M36 254q0 -113 71 -188q70 -76 198 -78q130 2 200 78q70 75 70 188q-1 129 -77 201q-75 71 -193 72q-116 -1 -191 -72q-77 -72 -78 -201zM176 270q0 61 33 106q32 46 96 47q66 -1 99 -46q31 -45 31 -107q0 -32 -5 -63q-5 -32 -20 -58t-40 -41q-26 -16 -65 -16
q-38 0 -62 17q-25 15 -40 41q-14 26 -20 58q-3 15 -5 32q-2 15 -2 30zM292 731h-137l137 -146h83z" />
    <glyph glyph-name="oacute" unicode="&#xf3;" horiz-adv-x="611" 
d="M36 254q0 -113 71 -188q70 -76 198 -78q130 2 200 78q70 75 70 188q-1 129 -77 201q-75 71 -193 72q-116 -1 -191 -72q-77 -72 -78 -201zM176 270q0 61 33 106q32 46 96 47q66 -1 99 -46q31 -45 31 -107q0 -32 -5 -63q-5 -32 -20 -58t-40 -41q-26 -16 -65 -16
q-38 0 -62 17q-25 15 -40 41q-14 26 -20 58q-3 15 -5 32q-2 15 -2 30zM238 585h83l137 146h-137z" />
    <glyph glyph-name="ocircumflex" unicode="&#xf4;" horiz-adv-x="611" 
d="M36 254q0 -113 71 -188q70 -76 198 -78q130 2 200 78q70 75 70 188q-1 129 -77 201q-75 71 -193 72q-116 -1 -191 -72q-77 -72 -78 -201zM176 270q0 61 33 106q32 46 96 47q66 -1 99 -46q31 -45 31 -107q0 -32 -5 -63q-5 -32 -20 -58t-40 -41q-26 -16 -65 -16
q-38 0 -62 17q-25 15 -40 41q-14 26 -20 58q-3 15 -5 32q-2 15 -2 30zM261 731l-110 -146h89l70 86l68 -86h89l-105 146h-101z" />
    <glyph glyph-name="otilde" unicode="&#xf5;" horiz-adv-x="611" 
d="M36 254q0 -113 71 -188q70 -76 198 -78q130 2 200 78q70 75 70 188q-1 129 -77 201q-75 71 -193 72q-116 -1 -191 -72q-77 -72 -78 -201zM176 270q0 61 33 106q32 46 96 47q66 -1 99 -46q31 -45 31 -107q0 -32 -5 -63q-5 -32 -20 -58t-40 -41q-26 -16 -65 -16
q-38 0 -62 17q-25 15 -40 41q-14 26 -20 58q-3 15 -5 32q-2 15 -2 30zM185 603q0 16 12 30q12 13 37 14q30 -1 68 -19q19 -7 40 -12q19 -6 46 -6q47 1 73 36q24 34 24 85h-54q0 -47 -44 -49q-19 0 -36 8q-18 6 -37 14t-39 14q-19 6 -42 6q-44 -1 -72 -37q-29 -37 -30 -84h54
z" />
    <glyph glyph-name="odieresis" unicode="&#xf6;" horiz-adv-x="611" 
d="M36 254q0 -113 71 -188q70 -76 198 -78q130 2 200 78q70 75 70 188q-1 129 -77 201q-75 71 -193 72q-116 -1 -191 -72q-77 -72 -78 -201zM176 270q0 61 33 106q32 46 96 47q66 -1 99 -46q31 -45 31 -107q0 -32 -5 -63q-5 -32 -20 -58t-40 -41q-26 -16 -65 -16
q-38 0 -62 17q-25 15 -40 41q-14 26 -20 58q-3 15 -5 32q-2 15 -2 30zM354 725v-116h116v116h-116zM264 609v116h-116v-116h116z" />
    <glyph glyph-name="divide" unicode="&#xf7;" horiz-adv-x="600" 
d="M554 201v104h-508v-104h508zM300 529q-35 -1 -55 -21q-22 -21 -22 -56q0 -33 22 -55q20 -22 55 -22t57 22q20 22 20 55q0 35 -20 56q-22 20 -57 21zM300 -23q35 1 57 22q20 22 20 55q0 35 -20 56q-22 20 -57 21q-35 -1 -55 -21q-22 -21 -22 -56q0 -33 22 -55
q20 -21 55 -22z" />
    <glyph glyph-name="oslash" unicode="&#xf8;" horiz-adv-x="611" 
d="M194 168q-19 47 -18 102q0 61 33 106q32 46 96 47q50 -1 79 -27zM417 354q18 -38 18 -84q0 -32 -5 -63q-5 -32 -20 -58t-40 -41q-26 -16 -65 -16q-52 0 -81 30zM513 550l-54 -65q-65 41 -154 42q-116 -1 -191 -72q-77 -72 -78 -201q0 -115 72 -189l-56 -67l41 -33l55 66
q64 -42 157 -43q130 2 200 78q70 75 70 188q-1 127 -76 198l54 65z" />
    <glyph glyph-name="ugrave" unicode="&#xf9;" horiz-adv-x="611" 
d="M542 0h-127v70h-2q-63 -80 -169 -82q-91 1 -132 58q-43 56 -43 144v111h134v-61q0 -11 2 -23q0 -12 1 -25q2 -26 9 -49q9 -22 26 -36q18 -15 49 -15q37 0 61 19q23 17 35 43q14 26 18 55t4 54v252h134v-515zM291 731h-137l137 -146h83z" />
    <glyph glyph-name="uacute" unicode="&#xfa;" horiz-adv-x="611" 
d="M542 0h-127v70h-2q-63 -80 -169 -82q-91 1 -132 58q-43 56 -43 144v111h134v-61q0 -11 2 -23q0 -12 1 -25q2 -26 9 -49q9 -22 26 -36q18 -15 49 -15q37 0 61 19q23 17 35 43q14 26 18 55t4 54v252h134v-515zM237 585h83l137 146h-137z" />
    <glyph glyph-name="ucircumflex" unicode="&#xfb;" horiz-adv-x="611" 
d="M542 0h-127v70h-2q-63 -80 -169 -82q-91 1 -132 58q-43 56 -43 144v111h134v-61q0 -11 2 -23q0 -12 1 -25q2 -26 9 -49q9 -22 26 -36q18 -15 49 -15q37 0 61 19q23 17 35 43q14 26 18 55t4 54v252h134v-515zM260 731l-110 -146h89l70 86l68 -86h89l-105 146h-101z" />
    <glyph glyph-name="udieresis" unicode="&#xfc;" horiz-adv-x="611" 
d="M542 0h-127v70h-2q-63 -80 -169 -82q-91 1 -132 58q-43 56 -43 144v111h134v-61q0 -11 2 -23q0 -12 1 -25q2 -26 9 -49q9 -22 26 -36q18 -15 49 -15q37 0 61 19q23 17 35 43q14 26 18 55t4 54v252h134v-515zM353 725v-116h116v116h-116zM263 609v116h-116v-116h116z" />
    <glyph glyph-name="yacute" unicode="&#xfd;" 
d="M159 515h-148l197 -541q0 -41 -23 -66t-64 -26q-46 0 -69 9l-9 -99q47 -14 95 -14q52 0 88 20q34 19 56 51q23 32 39 73q16 40 31 82l193 511h-136l-124 -376h-2zM210 585h83l137 146h-137z" />
    <glyph glyph-name="thorn" unicode="&#xfe;" horiz-adv-x="611" 
d="M69 -210h134v268h2q24 -30 61 -49q37 -20 93 -21q117 2 168 83q49 79 48 188q1 110 -48 188q-51 78 -168 80q-58 -1 -96 -23q-39 -23 -58 -56h-2v302h-134v-960zM324 423q33 0 55 -15t34 -40q22 -53 22 -109q0 -26 -4 -55q-6 -29 -19 -55q-12 -24 -34 -40
q-23 -17 -56 -17t-55 17q-22 16 -36 40q-28 52 -27 110q0 58 28 109q28 53 92 55z" />
    <glyph glyph-name="ydieresis" unicode="&#xff;" 
d="M159 515h-148l197 -541q0 -41 -23 -66t-64 -26q-46 0 -69 9l-9 -99q47 -14 95 -14q52 0 88 20q34 19 56 51q23 32 39 73q16 40 31 82l193 511h-136l-124 -376h-2zM327 725v-116h116v116h-116zM237 609v116h-116v-116h116z" />
    <glyph glyph-name="OE" unicode="&#x152;" horiz-adv-x="944" 
d="M868 578q-409 15 -452 16q-106 -1 -164 -67q-59 -68 -59 -182q0 -104 58 -171q58 -66 169 -70q43 0 70 6v306h378v-110h-238v-196h264v-110h-265q-112 -2 -224 -6q-65 0 -127 15q-64 14 -116 51q-51 38 -82 108q-33 68 -33 177q8 359 376 359l445 -10v-116z" />
    <glyph glyph-name="oe" unicode="&#x153;" horiz-adv-x="944" 
d="M618 308h162q-1 50 -24 85t-78 36q-51 -1 -86 -27t-36 -150q5 -105 45.5 -137t109.5 -29v-98q-65 0 -120 18q-55 17 -89 67q-41 -52 -95 -69t-102 -16q-128 2 -198 78q-71 75 -71 188q1 129 78 201q75 71 191 72q123 0 192 -88q31 45 79 67q48 21 101 21q138 -2 186 -94
q46 -91 45 -217h-290v92zM176 257q-1 -65 28 -116q29 -54 101 -55q74 1 104 53q9 12 15 26q5 13 8 28q6 30 6 62q0 68 -28 120q-31 52 -105 54q-68 -2 -98 -56q-31 -54 -31 -116z" />
    <glyph glyph-name="Scaron" unicode="&#x160;" 
d="M303 597q-7 3 -25 -1q-19 -4 -36 -15q-16 -10 -27 -30q-11 -19 -11 -48q0 -22 14 -37t35 -27q23 -12 50 -22q26 -11 55 -23q29 -11 56 -26q28 -16 49 -39q21 -22 35 -53q12 -32 12 -77q-2 -113 -77 -162t-184 -49v110q38 2 74 22q40 22 41 68q0 25 -12 43q-14 18 -35 30
q-46 24 -105 46q-29 12 -55 28q-27 15 -50 36q-21 22 -35 53t-14 73q2 116 77 166q72 47 167 47zM333 743l105 146h-89l-68 -86l-70 86h-89l110 -146h101z" />
    <glyph glyph-name="scaron" unicode="&#x161;" horiz-adv-x="444" 
d="M238 426q-20 -1 -35 -8q-26 -13 -27 -46q1 -29 37 -41q17 -7 38 -13t42 -14q23 -7 44 -18q20 -12 36 -28q17 -17 27 -41q9 -25 9 -61q-2 -89 -66 -129q-64 -39 -150 -39v98q22 3 45 14q30 13 31 49q0 20 -9 33q-10 12 -27 19q-35 14 -80 26q-21 7 -42 17t-38 26t-26 40
q-11 23 -11 57q1 84 63 122q58 38 139 38v-101zM275 585l105 146h-89l-68 -86l-70 86h-89l110 -146h101z" />
    <glyph glyph-name="Ydieresis" unicode="&#x178;" horiz-adv-x="667" 
d="M266 276l-255 422h164l165 -293l168 293h148l-250 -422v-486h-140v486zM385 883v-116h116v116h-116zM295 767v116h-116v-116h116z" />
    <glyph glyph-name="florin" unicode="&#x192;" 
d="M124 406l-15 -80h113l-70 -353q-3 -26 -16 -57q-14 -32 -56 -34q-27 0 -52 5l-20 -99q25 -7 52 -8q26 -2 52 -2q55 1 90 26q35 24 54 59q20 35 30 72q9 36 13 62l61 329h124l13 80h-121l25 118q7 37 23 60q15 22 47 22q20 0 33 -3q13 -5 25 -8l18 106q-41 9 -84 9
q-88 0 -132 -40q-45 -42 -62 -124l-31 -140h-114z" />
    <glyph glyph-name="circumflex" unicode="&#x2c6;" horiz-adv-x="278" 
d="M91 731l-110 -146h89l70 86l68 -86h89l-105 146h-101z" />
    <glyph glyph-name="tilde" unicode="&#x2dc;" horiz-adv-x="278" 
d="M16 603q0 16 12 30q12 13 37 14q30 -1 68 -19q19 -7 40 -12q19 -6 46 -6q47 1 73 36q24 34 24 85h-54q0 -47 -44 -49q-19 0 -36 8q-18 6 -37 14t-39 14q-19 6 -42 6q-44 -1 -72 -37q-29 -37 -30 -84h54z" />
    <glyph glyph-name="endash" unicode="&#x2013;" horiz-adv-x="500" 
d="M0 223h500v92h-500v-92z" />
    <glyph glyph-name="emdash" unicode="&#x2014;" horiz-adv-x="1000" 
d="M0 223h1000v92h-1000v-92z" />
    <glyph glyph-name="quoteleft" unicode="&#x2018;" horiz-adv-x="278" 
d="M34 448h147l63 250h-119z" />
    <glyph glyph-name="quoteright" unicode="&#x2019;" horiz-adv-x="278" 
d="M34 448h118l92 250h-146z" />
    <glyph glyph-name="quotesinglbase" unicode="&#x201a;" horiz-adv-x="278" 
d="M34 -110h118l92 250h-146z" />
    <glyph glyph-name="quotedblleft" unicode="&#x201c;" horiz-adv-x="481" 
d="M34 448h147l63 250h-119zM237 448h147l63 250h-119z" />
    <glyph glyph-name="quotedblright" unicode="&#x201d;" horiz-adv-x="481" 
d="M34 448h118l92 250h-146zM237 448h118l92 250h-146z" />
    <glyph glyph-name="quotedblbase" unicode="&#x201e;" horiz-adv-x="481" 
d="M237 -110h118l92 250h-146zM34 -110h118l92 250h-146z" />
    <glyph glyph-name="dagger" unicode="&#x2020;" 
d="M59 435h155v-435h128v435h155v104h-155v159h-128v-159h-155v-104z" />
    <glyph glyph-name="daggerdbl" unicode="&#x2021;" 
d="M59 457h155v-212h-155v-98h155v-147h128v147h155v98h-155v212h155v98h-155v143h-128v-143h-155v-98z" />
    <glyph glyph-name="bullet" unicode="&#x2022;" horiz-adv-x="500" 
d="M76 349q1 -73 52 -123q48 -51 122 -52q74 1 124 52q50 50 51 123q-1 74 -51 124q-50 49 -124 50q-74 -1 -122 -50q-51 -50 -52 -124z" />
    <glyph glyph-name="ellipsis" unicode="&#x2026;" horiz-adv-x="1000" 
d="M237 0v140h-140v-140h140zM570 0v140h-140v-140h140zM903 0v140h-140v-140h140z" />
    <glyph glyph-name="perthousand" unicode="&#x2030;" horiz-adv-x="1000" 
d="M151 436q-18 0 -28 10q-10 8 -15 22q-8 30 -7 69q-1 40 7 70q5 15 15 23t28 8q19 0 29 -8t14 -23q7 -30 6 -70q1 -39 -6 -69q-4 -14 -14 -22q-10 -10 -29 -10zM73 -22h82l429 742h-82zM151 364q42 0 69 14t43 38q29 50 29 124q0 75 -29 122q-16 23 -43 36q-27 12 -69 12
q-40 0 -67 -12q-28 -13 -45 -36q-7 -10 -13 -24t-10 -29q-7 -31 -7 -69q0 -36 7 -68t23 -56q17 -24 45 -38q27 -14 67 -14zM515 60q-18 0 -28 10q-10 8 -15 22q-8 30 -7 69q-1 40 7 70q5 15 15 23t28 8q19 0 29 -8t14 -23q7 -30 6 -70q1 -39 -6 -69q-4 -14 -14 -22
q-10 -10 -29 -10zM515 -12q42 0 69 14t43 38q29 50 29 124q0 75 -29 122q-16 23 -43 36q-27 12 -69 12q-40 0 -67 -12q-28 -13 -45 -36q-7 -10 -13 -24t-10 -29q-7 -31 -7 -69q0 -36 7 -68t23 -56q17 -24 45 -38q27 -14 67 -14zM851 -12q42 0 69 14t43 38q29 50 29 124
q0 75 -29 122q-16 23 -43 36q-27 12 -69 12q-40 0 -67 -12q-28 -13 -45 -36q-7 -10 -13 -24t-10 -29q-7 -31 -7 -69q0 -36 7 -68t23 -56q17 -24 45 -38q27 -14 67 -14zM851 60q-18 0 -28 10q-10 8 -15 22q-8 30 -7 69q-1 40 7 70q5 15 15 23t28 8q19 0 29 -8t14 -23
q7 -30 6 -70q1 -39 -6 -69q-4 -14 -14 -22q-10 -10 -29 -10z" />
    <glyph glyph-name="guilsinglleft" unicode="&#x2039;" horiz-adv-x="333" 
d="M49 269l118 -205h126l-110 205l110 205h-126z" />
    <glyph glyph-name="guilsinglright" unicode="&#x203a;" horiz-adv-x="333" 
d="M284 269l-118 205h-126l110 -205l-110 -205h126z" />
    <glyph glyph-name="trademark" unicode="&#x2122;" horiz-adv-x="1000" 
d="M465 282h98v294h2l106 -294h75l106 294h2v-294h98v416h-145l-98 -260l-99 260h-145v-416zM165 282h104v336h117v80h-338v-80h117v-336z" />
    <glyph glyph-name="fraction" horiz-adv-x="167" 
d="M-166 -22h82l417 742h-82z" />
    <glyph glyph-name="breve" horiz-adv-x="278" 
d="M-24 730q5 -69 50 -109q45 -43 112 -43q69 0 114 43q45 40 50 109h-62q-20 -79 -102 -80q-81 1 -100 80h-62z" />
    <glyph glyph-name="dotaccent" horiz-adv-x="278" 
d="M197 609v116h-116v-116h116z" />
    <glyph glyph-name="ring" horiz-adv-x="278" 
d="M33 685q1 -44 33 -74q30 -32 74 -32q46 0 76 32q29 30 30 74q-1 45 -30 76q-30 30 -76 31q-44 -1 -74 -31q-32 -31 -33 -76zM87 685q0 23 16 39q14 14 37 14t38 -14q14 -16 14 -39q0 -22 -14 -36q-15 -16 -38 -16t-37 16q-16 14 -16 36z" />
    <glyph glyph-name="ogonek" horiz-adv-x="278" 
d="M181 0q-39 -19 -78 -51q-18 -16 -29 -36q-13 -21 -13 -45q0 -45 28 -67q26 -23 70 -23q50 0 79 20t46 59l-40 8q-9 -12 -24 -22t-32 -11q-42 1 -41 45q1 40 27 71q26 30 56 52h-49z" />
    <glyph glyph-name="caron" horiz-adv-x="278" 
d="M192 585l105 146h-89l-68 -86l-70 86h-89l110 -146h101z" />
    <glyph glyph-name="Lslash" horiz-adv-x="500" 
d="M81 243v-243h411v110h-271v216l168 100v92l-168 -100v280h-140v-363l-73 -44v-92z" />
    <glyph glyph-name="dotlessi" horiz-adv-x="278" 
d="M206 0v515h-134v-515h134z" />
    <glyph glyph-name="lslash" horiz-adv-x="278" 
d="M72 293v-293h134v373l72 43v92l-72 -43v285h-134v-365l-72 -43v-92z" />
    <glyph glyph-name="minus" horiz-adv-x="600" 
d="M554 201v104h-508v-104h508z" />
    </font>
</defs>
</svg>
